<?xml version="1.0" encoding="UTF-8"?>
<svg id="_Слой_2" data-name="Слой 2" xmlns="http://www.w3.org/2000/svg" viewBox="0 0 408.53 345.37">
  <defs>
    <style>
      .cls-1 {
        fill: #e2e2e1;
        stroke-width: 0px;
      }
    </style>
  </defs>
  <g id="_Слой_1-2" data-name="Слой 1">
    <path class="cls-1" d="M408.53,195.13c-2.01,5.14-3.29,10.75-6.18,15.34-6.55,10.38-16.82,13.88-28.75,13.87-61.2-.07-122.4-.03-183.6-.03-1.71,0-3.42,0-6.27,0,1.63,1.73,2.52,2.75,3.49,3.69,11.29,10.91,22.61,21.78,33.87,32.73,14.77,14.36,14.89,33.7.34,48.36-9.56,9.63-19.12,19.26-28.71,28.86-9.47,9.47-27.79,9.97-39.36,1.07-1.79-1.38-3.5-2.88-5.1-4.46-45.77-45.3-91.5-90.62-137.28-135.91-8.76-8.66-12.54-18.93-10.38-31.14,1.33-7.54,4.98-14.07,10.32-19.43C56.76,102.09,102.65,56.16,148.64,10.33c14.22-14.17,33.86-13.64,47.76.88,8.65,9.04,17.35,18.02,25.91,27.13,13.5,14.37,13.23,32.99-.63,46.99-10.49,10.59-21.05,21.1-31.62,31.6-1.03,1.02-2.36,1.74-3.56,2.6.21.49.43.98.64,1.47,1.48,0,2.95,0,4.43,0,61.2,0,122.4.02,183.6-.02,11.19,0,20.9,3.41,27.22,12.93,2.92,4.4,4.15,9.91,6.15,14.91v46.31ZM263.05,197.33c36.72,0,73.44,0,110.16,0,6.42,0,9.63-3.23,9.64-9.76.02-10.78.01-21.55,0-32.33,0-7.13-.21-7.34-7.42-7.34-66.39,0-132.77,0-199.16,0-7.32,0-14.63-.02-21.95,0-4.09.01-7.56-1.36-10.28-4.44-5.42-6.14-4.91-13.15,1.57-19.79,18.85-19.34,37.76-38.62,56.64-57.93,4.17-4.26,4.12-7.04-.16-11.13-8.47-8.09-16.96-16.14-25.42-24.23-5.25-5.02-5.36-5.04-10.68.28-16.09,16.08-32.18,32.17-48.26,48.26-29.16,29.16-58.32,58.31-87.47,87.48-4.82,4.82-4.79,7.6.04,12.47,3.19,3.21,6.39,6.4,9.59,9.6,42.24,42.24,84.48,84.48,126.72,126.71,4.66,4.66,6.29,4.67,10.83.14,8.1-8.08,16.19-16.17,24.27-24.27,4.8-4.81,4.82-7.27.02-11.97-19.2-18.8-38.42-37.59-57.61-56.4-1.23-1.21-2.43-2.46-3.54-3.78-3.86-4.55-3.46-9.53-1.28-14.59,1.95-4.52,5.7-6.45,10.41-6.77,1.99-.14,3.98-.2,5.98-.2,35.79-.01,71.58,0,107.36,0Z"/>
  </g>
</svg>