<?xml version="1.0" encoding="UTF-8"?>
<svg id="_Слой_2" data-name="Слой 2" xmlns="http://www.w3.org/2000/svg" viewBox="0 0 17.58 17.58">
  <defs>
    <style>
      .cls-1 {
        fill: #545454;
      }

      .cls-1, .cls-2 {
        stroke-width: 0px;
      }

      .cls-2 {
        fill: #fff;
      }
    </style>
  </defs>
  <g id="_Слой_1-2" data-name="Слой 1">
    <g>
      <path class="cls-2" d="M8.79,16.45c-1.76-3.34-4.33-5.91-7.66-7.66,3.33-1.75,5.85-4.27,7.66-7.67,1.79,3.38,4.31,5.9,7.67,7.66-3.41,1.81-5.93,4.34-7.67,7.67Z"/>
      <path class="cls-1" d="M8.79,2.15c1.65,2.82,3.84,5.01,6.64,6.64-2.83,1.67-5.03,3.86-6.64,6.63-1.63-2.78-3.85-5-6.62-6.63,2.78-1.62,4.97-3.81,6.63-6.64M8.79,0C6.89,4.01,4.02,6.93,0,8.79c4.02,1.86,6.93,4.77,8.79,8.79,1.86-4.03,4.79-6.9,8.79-8.8C13.55,6.91,10.66,4,8.79,0h0Z"/>
    </g>
  </g>
</svg>