<?xml version="1.0" encoding="UTF-8"?>
<svg id="_Слой_2" data-name="Слой 2" xmlns="http://www.w3.org/2000/svg" viewBox="0 0 59.14 59.14">
  <defs>
    <style>
      .cls-1 {
        fill: #0b4c44;
      }

      .cls-1, .cls-2 {
        stroke-width: 0px;
      }

      .cls-2 {
        fill: #fff;
      }
    </style>
  </defs>
  <g id="_Слой_1-2" data-name="Слой 1">
    <g>
      <g>
        <path class="cls-2" d="M29.57,54.14c-13.55,0-24.57-11.02-24.57-24.57S16.02,5,29.57,5s24.57,11.02,24.57,24.57-11.02,24.57-24.57,24.57Z"/>
        <path class="cls-1" d="M29.57,10c10.81,0,19.57,8.76,19.57,19.57s-8.76,19.57-19.57,19.57-19.57-8.76-19.57-19.57S18.76,10,29.57,10M29.57,0C13.26,0,0,13.26,0,29.57s13.26,29.57,29.57,29.57,29.57-13.26,29.57-29.57S45.87,0,29.57,0h0Z"/>
      </g>
      <g>
        <path class="cls-2" d="M29.57,41.9c-1.15,0-2.3-.16-3.41-.48-3.16-.91-5.79-3-7.38-5.88s-1.97-6.21-1.06-9.38c1.51-5.26,6.38-8.93,11.85-8.93,1.15,0,2.3.16,3.41.48,3.16.91,5.79,3,7.38,5.88,1.6,2.88,1.97,6.21,1.06,9.38-1.51,5.26-6.38,8.93-11.85,8.93Z"/>
        <path class="cls-1" d="M29.57,22.24c.67,0,1.35.09,2.03.29,3.89,1.12,6.14,5.18,5.02,9.07-.92,3.21-3.85,5.31-7.04,5.31-.67,0-1.35-.09-2.03-.29-3.89-1.12-6.14-5.18-5.02-9.07.92-3.21,3.85-5.31,7.04-5.31M29.57,12.24h0c-7.68,0-14.53,5.16-16.65,12.55-1.28,4.45-.75,9.13,1.5,13.18s5.93,6.98,10.38,8.26c1.56.45,3.17.68,4.79.68,7.68,0,14.53-5.16,16.65-12.55,1.28-4.45.75-9.13-1.5-13.18-2.24-4.05-5.93-6.98-10.38-8.26-1.56-.45-3.17-.68-4.79-.68h0Z"/>
      </g>
    </g>
  </g>
</svg>