<?xml version="1.0" encoding="UTF-8"?>
<svg id="_Слой_2" data-name="Слой 2" xmlns="http://www.w3.org/2000/svg" viewBox="0 0 14.67 17.51">
  <defs>
    <style>
      .cls-1 {
        fill: #565555;
        stroke: #fff;
        stroke-miterlimit: 10;
        stroke-width: .5px;
      }

      .cls-2 {
        fill: #fff;
        stroke-width: 0px;
      }
    </style>
  </defs>
  <g id="_Слой_1-2" data-name="Слой 1">
    <g>
      <path class="cls-1" d="M13.83.25h-4.39c-.27.03-.55.06-.82.08-1.59.17-3.14.54-4.57,1.4C2.03,2.93.81,4.81.4,7.36c-.06.35-.1.71-.15,1.07v1.59c.06.36.1.72.18,1.07.17.87.51,1.65.98,2.36.07.1.08.18.06.3-.15.82-.3,1.64-.43,2.46-.07.43.31.97.7,1.04s.8-.3.87-.8c.09-.56.17-1.11.25-1.67.02-.17.08-.21.22-.21.86,0,1.71.02,2.57-.03,1.95-.1,3.77-.68,5.32-2.11,1.22-1.12,2.02-2.56,2.56-4.21.41-1.23.64-2.52.79-3.83.12-1.1.1-2.19.1-3.29,0-.45-.22-.71-.59-.85ZM11.8,8.31c-.96,2.41-2.62,3.8-4.9,4.28-1.02.21-2.04.18-3.07.18h-.42c.22-.44.4-.85.61-1.22.84-1.47,2.02-2.49,3.4-3.21.08-.04.16-.08.24-.12.4-.22.56-.72.38-1.19-.16-.42-.62-.64-1.01-.43-.54.3-1.09.61-1.6.98-1.35.96-2.4,2.25-3.15,3.85-.02.03-.04.06-.11.1-.09-.42-.24-.83-.28-1.26-.13-1.23-.07-2.45.29-3.64.45-1.47,1.31-2.54,2.5-3.27.99-.61,2.06-.92,3.16-1.11,1.65-.29,3.32-.17,4.97-.21.01.04.03.05.03.07,0,2.14-.26,4.23-1.04,6.2Z"/>
      <path class="cls-2" d="M12.84,2.11c0,2.14-.26,4.23-1.04,6.2-.96,2.41-2.62,3.8-4.9,4.28-1.02.21-2.04.18-3.07.18h-.42c.22-.44.4-.85.61-1.22.84-1.47,2.02-2.49,3.4-3.21.08-.04.16-.08.24-.12.4-.22.56-.72.38-1.19-.16-.42-.62-.64-1.01-.43-.54.3-1.09.61-1.6.98-1.35.96-2.4,2.25-3.15,3.85-.02.03-.04.06-.11.1-.09-.42-.24-.83-.28-1.26-.13-1.23-.07-2.45.29-3.64.45-1.47,1.31-2.54,2.5-3.27.99-.61,2.06-.92,3.16-1.11,1.65-.29,3.32-.17,4.97-.21.01.04.03.05.03.07Z"/>
    </g>
  </g>
</svg>