<?xml version="1.0" encoding="utf-8"?>
<!-- Generator: Adobe Illustrator 28.1.0, SVG Export Plug-In . SVG Version: 6.00 Build 0)  -->
<svg version="1.1" id="_Слой_2" xmlns="http://www.w3.org/2000/svg" xmlns:xlink="http://www.w3.org/1999/xlink" x="0px"
	 y="0px" viewBox="0 0 827 1100.9" style="enable-background:new 0 0 827 1100.9;" xml:space="preserve">
<style type="text/css">
	.st0{fill:#FFFFFF;}
</style>
<path class="st0" d="M393.9,1050.6c-3.9,3.3-8.4,4-13.4,2.5c1-0.5,2-1,3.5-1.8c-1.2-0.4-2-0.9-2.7-0.9c-2.5,0-3.2-1.6-3.3-3.7
	c-0.1-3.3,0-6.7,0-11c3.1,0.5,6.1,0.2,7.7,1.5c1.9,1.6,2.8,4.6,3.8,7.2c0.2,0.6-0.9,1.7-1.4,2.5c-0.6,1.1-1.2,2.3-1.8,3.4
	c1.4,0.4,2.7,1.1,4.1,1.2C391.5,1051.7,392.7,1051,393.9,1050.6L393.9,1050.6z"/>
<path class="st0" d="M219.4,546.6c0.2,2.9,0.3,5.8,0.5,8.9c-2.6-6.9-1-16.3,4-22.2c5,0.6,4.7,0.6,4.1,5.8c-0.3,2.9,0.6,5.8,0.5,8.8
	c0,1.2-1.1,3.2-1.8,3.2c-1.5,0-3.2-0.7-4.5-1.6c-0.9-0.6-1.3-2-1.9-3C220.1,546.4,219.8,546.5,219.4,546.6L219.4,546.6z"/>
<path class="st0" d="M306.6,1005.1c-0.8,1-1.1,1.8-1.6,1.8c-5.2,0.5-10.5,1.1-15.8,1.2c-1.1,0-2.2-1.8-3.2-2.8
	c1.2-0.8,2.5-2.2,3.7-2.2c4.1-0.2,8.2-0.1,12.2,0.2C303.5,1003.4,304.9,1004.4,306.6,1005.1L306.6,1005.1z"/>
<path class="st0" d="M524.2,679.8c-1.6,4.6-4.4,8.2-8.2,11.1c-0.6,0.5-2.1,0.8-2.6,0.4c-0.6-0.5-0.7-1.8-0.6-2.7
	C513.6,684.5,519,680.3,524.2,679.8L524.2,679.8z"/>
<path class="st0" d="M381.5,1027.4c-0.6-1.3-1.1-2.5-1.6-3.7c-1.2-2.7-0.8-5.1,1.8-6.4c1.9-1,4.2-0.6,5.3,1.9
	c1.1,2.3-0.3,5.7-2.8,6.8C383.2,1026.3,382.4,1026.9,381.5,1027.4L381.5,1027.4z"/>
<path class="st0" d="M227.4,712.9c-0.3,4.7-2.6,6.7-8.6,7.9C217.8,716.9,221.8,713.2,227.4,712.9z"/>
<path class="st0" d="M115.6,885.9c-3.2-2.2-4.7-8.6-3.3-10.5c0.4-0.6,1.6-1.2,2.1-1c0.8,0.3,2,1.2,2,1.9
	C116.3,879.3,115.9,882.3,115.6,885.9z"/>
<path class="st0" d="M316.8,1004.3c-2.8,3.3-6.7,3.7-9.2,1C309.7,1001.1,313,1000.7,316.8,1004.3z"/>
<path class="st0" d="M553,643.6c-1.3,2.2-2.5,4.5-4,6.5c-0.5,0.7-2.1,0.5-3.1,0.7c0.1-1.3-0.4-3,0.3-3.7c1.6-1.8,3.7-3,5.6-4.5
	C552.2,642.9,552.6,643.3,553,643.6L553,643.6z"/>
<path class="st0" d="M370.6,1041v-25.5c0.1,0,0.2,0,0.4,0v25.5C370.9,1041,370.8,1041,370.6,1041L370.6,1041z"/>
<path class="st0" d="M187.5,510.2h28.1v0.2h-28C187.5,510.4,187.5,510.3,187.5,510.2L187.5,510.2z"/>
<path class="st0" d="M185.6,503.6h26.1c0,0.1,0,0.1,0,0.2h-26L185.6,503.6L185.6,503.6z"/>
<path class="st0" d="M229.2,708.6c1.9-0.8,3.6-1.6,5.4-2.1c0.5-0.1,1.4,0.8,1.8,1.4c0.1,0.2-0.7,1.5-1.1,1.5
	C233.4,709.5,231.3,712.7,229.2,708.6L229.2,708.6z"/>
<path class="st0" d="M636.6,844.6c-1.4,2.8-5.1,4.2-6.7,3.1c-0.3-0.2-0.8-0.9-0.7-1.2c0.1-0.5,0.6-1.2,1-1.2
	C632.2,845,634.1,844.8,636.6,844.6L636.6,844.6z"/>
<path class="st0" d="M244.3,702c-1.9,2.6-3.2,4.8-6.3,3.3C239.5,703.4,240.7,700.7,244.3,702z"/>
<path class="st0" d="M382.3,1012.9c-1.8,1.1-3.6,2.3-5.4,3.4c-0.2-0.3-0.5-0.6-0.7-0.9c1.7-1.3,3.4-2.6,5.1-3.9
	C381.6,1011.9,382,1012.4,382.3,1012.9L382.3,1012.9z"/>
<path class="st0" d="M231.3,527.8l0.2-0.2c-0.3-0.2-0.5-0.3-0.8-0.5C230.9,527.4,231.1,527.6,231.3,527.8L231.3,527.8z"/>
<path class="st0" d="M230.5,529.4l-0.2,0.2L230.5,529.4z"/>
<path class="st0" d="M371.4,885.1c-6.5,3.7-12.8,4.4-19.5,2.8c-4.6-1.1-9.2-1.9-13.8-3c-1.1-0.3-2.2-0.9-3.7-1.5
	c2.8-4,7-4.4,10.6-5.7c2.7-0.9,5.5-1.3,8.3-2c5.5-1.5,8-0.5,11.5,4C366.4,881.7,368.9,883.1,371.4,885.1L371.4,885.1z M351.5,881.7
	c0,0.5-0.1,1-0.1,1.5c3,0.5,6,0.9,9,1.4c0.1-0.5,0.1-0.9,0.2-1.3C357.9,880.2,354.7,881,351.5,881.7L351.5,881.7z"/>
<path class="st0" d="M394.1,890c-5.6-0.2-7.2-1.9-7.9-6.2c-0.1-0.8-1.4-1.6-2.3-2.2c-2.4-1.5-4.9-2.7-7.1-4.4
	c-0.7-0.6-0.4-2.4-0.6-3.7c1.1,0.2,2.4,0.2,3.2,0.7c6.1,4.3,12.5,7.4,20.4,5.6c1.2-0.3,2.8,0.8,4.2,1.2c-0.8,1.1-1.6,2.2-2.5,3.3
	c-0.5,0.7-1,1.4-1.6,1.8C397.7,887.7,395.3,889.2,394.1,890L394.1,890z"/>
<path class="st0" d="M466.3,884.1c-1.2,0.5-1.6,0.8-2.1,0.9c-3.3,0.6-6.7,1.3-10,1.6c-1.7,0.2-3.5-0.5-5.3-0.4c-1.4,0-2.9,0.5-4.2,1
	c-4.3,1.8-5.4,1-5.2-3.4c0.1-2.3-0.1-4.7-0.6-7s0.3-3.2,2.5-3.5c3.6-0.5,7.6,2.5,9.5,7c1.8,4.5,1.8,4.5,6,2.6
	C459.9,881.6,462.8,882.2,466.3,884.1L466.3,884.1z"/>
<path class="st0" d="M459,870.5c7.6-1.7,14.3-2.5,21.1-1.5c1.9,0.3,3.8,1,3.1,3.2c-0.4,1.3-1.8,3.2-2.9,3.4
	c-3.1,0.5-6.5,0.5-9.6,0.1c-3-0.4-6-1.4-8.9-2.4C460.9,873,460.3,871.8,459,870.5L459,870.5z"/>
<path class="st0" d="M374.7,876.7c-4.7,2-10.8,0.3-12.5-2.9c-0.5-0.8-0.6-2.3-0.1-3c0.4-0.6,2.2-0.9,2.9-0.5
	C368,872.1,371,874.2,374.7,876.7z"/>
<path class="st0" d="M498.7,873.5c-1.2,4-4.4,6.4-7,4.9c-0.9-0.5-1.6-2.7-1.3-3.8C491.4,871.4,494.2,871.1,498.7,873.5z"/>
<path class="st0" d="M488.1,878.1c1.7,2.2,3.6,3.9,3.3,4.5c-0.8,1.5-2.3,3.1-3.8,3.6c-1.8,0.5-4.1-0.6-3.5-2.9
	C484.3,881.6,486.1,880.4,488.1,878.1L488.1,878.1z"/>
<path class="st0" d="M390.4,871.1c-1.4,1.3-1.9,2-2.6,2.4c-1.8,1-7-1.2-7.6-3.2c-0.1-0.5,0-1.7,0.2-1.7c1.2-0.2,2.5-0.5,3.7-0.2
	C386.1,869,387.9,870,390.4,871.1L390.4,871.1z"/>
<path class="st0" d="M424.1,885.5c2.8-0.3,5.7-0.7,8.5-1C429.1,888.7,426.7,889.1,424.1,885.5z"/>
<path class="st0" d="M405.8,508.5c1.5-6.6,3-13.2,4.5-19.6c5.2,8.9,2.5,24.3-6.5,35.4c-8.8,10.8-20.5,14.3-35.3,13
	c1.4-1,2.1-1.8,2.9-2c4.3-1,8.9-1.3,12.9-2.9c3.7-1.5,6.9-4.4,10-7.5c-12.7,5.3-25,6.8-36.4-2.4c-5.9-4.8-9.3-11.5-9.9-19
	c-1.6-17.8,9.1-33,28.3-34.3c14.5-1,32.9,10.3,28.2,39C404.9,508.3,405.4,508.4,405.8,508.5L405.8,508.5z M381.1,506
	c-0.4,3.2-3,5.5-6.4,7.2c-0.8,0.4-1.2,1.6-1.7,2.4c0.9,0.4,1.8,1.2,2.6,1.2c5.6,0.1,10.8-3.9,11.5-9.5c0.7-5,0.9-10.1,0.8-15.2
	c0-3.3-1.6-6.3-5.5-6.3c-4.3,0-8.6,0.2-12.8,1c-1.2,0.2-2.6,2.7-2.8,4.2c-0.2,3,0.1,6.2,0.8,9.2c0.4,1.5,1.8,3.6,3.1,4
	C374.1,505.3,377.5,505.5,381.1,506L381.1,506z M401.9,504c2.8-10.4-2.3-25.1-12.8-29.6c-12.9-5.5-27-2.5-35.5,11.6
	c-6.1,10.3-2.7,26.9,4,31.3c-0.3-0.7-0.5-1.1-0.7-1.5c-4.2-10.2-5.2-20.3,0.7-30.4c8.1-13.7,28.2-14.6,38.3-0.8
	C400.2,490.5,401.6,497,401.9,504L401.9,504z"/>
<path class="st0" d="M530.8,587c0-6.6-0.1-13.1,0-19.7c0.2-9.5,0.5-19.1,0.8-28.6c0.1-3.7,0.3-7.5,0.8-11.1c0.2-1.4,1.5-2.6,2.3-3.8
	c1,1.3,2.6,2.5,2.7,3.9c0.3,3.4-0.2,6.8-0.4,10.2c-0.3,7.3-0.7,14.6-1,21.9c-0.3,7.9-0.7,15.8-0.9,23.7
	C535.2,586.1,534,587.4,530.8,587L530.8,587z"/>
<path class="st0" d="M586.9,581.3c0-5,0-10,0-15c0-1.8,0-3.2-2.4-3.3s-3.1,0.9-3,3.1c0.1,4.2,0,8.5,0,12.7c0,2.9-1.2,4.5-5,3.7
	c-0.2-4.6-0.4-9.4-0.5-14.2c0-0.9,0.4-1.9,0.1-2.6c-0.5-1-1.4-1.8-2.2-2.7c-0.7,0.8-1.8,1.7-1.9,2.5c-0.3,4.5-0.4,9-0.5,13.5
	c-0.1,3.4-1.8,4.5-5.3,4.2c0-7.1-0.1-14.2,0-21.2c0.1-3.2,0.3-6.5,0.9-9.6c0.3-1.6,1.8-2.9,2.5-4.4c0.5-0.9,0.8-2,0.9-3
	c0.1-3.6,0-7.2,0.5-10.8c0,1.2-0.1,2.5,0,3.7c0.4,7.6,0.9,15.1,1.4,22.7c0,0.7,0.8,1.4,1.4,1.9c0.2,0.2,1.2-0.2,1.3-0.4
	c0-0.8-0.2-1.5-0.2-2.3c-0.4-3.6-0.8-7.3-1.2-10.9c0.3,0,0.6,0,1-0.1v9.9c0.3,0,0.7,0.1,1,0.1c0.4-1.9,0.5-3.8,1.2-5.6
	c0.3-1,1.4-1.7,2.2-2.5c0.7,0.8,1.6,1.5,1.9,2.4c0.4,1.3,0.1,2.8,0.6,4c0.4,1,1.6,2.5,2.3,2.4c1.1-0.1,2.2-1.2,3.1-2.2
	c0.9-1.1,1.5-2.4,2.2-3.7c0.8,1.3,1.5,2.6,2.3,3.9c0.4,0.7,0.8,1.4,1.1,2.2c0.3,0.7,1,1.8,0.8,2.2c-3.7,5.2-1.3,11.1-1.9,16.6
	C591,582.1,589.7,582.2,586.9,581.3L586.9,581.3z"/>
<path class="st0" d="M613.2,559.8h4.3c-0.3,0.9-0.9,1.8-0.9,2.7c0,4.9,0.1,9.9,0.2,14.8c0.1,2-0.7,3.4-2.6,3c-0.8-0.1-1.6-2-1.7-3.1
	c-0.5-4.7-0.9-9.4-1.1-14.1C611.5,562.1,612.6,561,613.2,559.8L613.2,559.8z"/>
<path class="st0" d="M597.1,580.8c0-6.7-0.1-13.4,0.1-20c0-1.1,1.6-2.1,2.5-3.2c0.5,1.1,1.5,2.2,1.6,3.4c0.1,5.8,0.1,11.5-0.1,17.3
	c0,1.2-1.5,2.3-2.2,3.4L597.1,580.8L597.1,580.8z"/>
<path class="st0" d="M609.3,569.9c0,2.7,0.1,5.5-0.1,8.2c-0.1,0.8-1.2,1.5-1.8,2.2c-0.7-0.7-2-1.4-2-2.1c-0.2-5.6-0.3-11.2-0.2-16.8
	c0-0.6,1.2-1.3,1.8-1.9c0.8,1,2.1,1.9,2.2,2.9c0.2,2.5-0.2,5-0.3,7.4C609.1,569.9,609.2,569.9,609.3,569.9L609.3,569.9z"/>
<path class="st0" d="M590.1,548h-13c0-0.3,0-0.6,0-0.9h12.7c0-0.6,0-1.1,0-1.7c-2.6-0.1-5.2-0.3-7.5-0.4
	C587.3,544.8,590,545.8,590.1,548L590.1,548z"/>
<path class="st0" d="M513.2,619.2c6.7,3.8,8.8,8.2,10.7,20.3c2.9-3,4-9,3.4-16.2c0.8,1.4,2,2.8,2.5,4.3c4.1,12.1-4.4,30.2-17,35.4
	c1.1-1.8,1.9-3.2,3.1-5.3c-5.1,1.2-9.5,2.3-13.8,3.4c-0.2-0.3-0.4-0.7-0.5-1c7.7-3.5,12.5-9.3,14.4-17.4
	C517.8,635,517.5,627.3,513.2,619.2L513.2,619.2z"/>
<path class="st0" d="M512.1,615.3c-4.7-0.7-9-1.2-13.3-2c-0.8-0.2-2.1-1.4-2.1-2.1c0.1-1.2,0.8-3.2,1.6-3.3c2.2-0.5,4.7-0.8,6.7-0.2
	C508.7,608.8,510.7,611.8,512.1,615.3L512.1,615.3z"/>
<path class="st0" d="M478,619.9c-1.1-1.6-2.1-2.7-2-2.8c1.5-1.8,3.1-3.5,4.9-4.9c0.1-0.1,1.7,1.4,2.6,2.2
	C481.9,616,480.2,617.7,478,619.9L478,619.9z"/>
<path class="st0" d="M492.9,609.9c-2.4,1.8-3.7,5.6-7.4,2.8c-0.4-0.3,0.3-2.9,1.2-3.8C488.8,607.2,491.1,606.2,492.9,609.9z"/>
<path class="st0" d="M492.4,387.3c0,15.6,0,30.8,0,46.1c0,7.8-0.1,15.6,0.1,23.4c0.1,3.4-2,3.7-4.3,3.7c-5.8-0.1-11.7-0.5-17.5-0.8
	c-2.6-0.1-6.1,0.7-7.5-0.6c-1.3-1.3-0.5-4.9-0.5-7.4c0.2-12.2,0.6-24.3,0.7-36.5c0.1-8.2,0-16.4,0-24.6c0-1.8-0.2-3.7,2.4-3.7
	c7.6-0.1,15.1-0.1,22.7-0.1C489.6,386.7,490.7,387,492.4,387.3L492.4,387.3z M484.1,428.2c0-8.2,0-16.3-0.1-24.4
	c0-0.6-1.1-1.7-1.7-1.8c-5.3-0.1-10.6-0.1-16.3-0.1c0,7.8-0.1,14.8,0.1,21.9c0,0.8,1.4,2,2.2,2.1
	C473.4,426.9,478.6,427.5,484.1,428.2L484.1,428.2z M484.6,442.9c-5.4,0-10.6,0-15.7,0c-1.7,0-3.6,0-3.5,2.7c0.2,3.4,0,6.8,0,10.5
	c6.1,0.3,12.5,0.5,19.1,0.9L484.6,442.9L484.6,442.9z M465.8,429c0,3.4-0.1,5.7,0.1,8c0.1,0.8,0.9,2,1.5,2.1
	c5.6,0.5,11.2,0.8,16.8,1.1c0.2-2.2,0.6-3.7,0.4-5.1c-0.1-1-0.9-2.6-1.7-2.8C477.4,431.1,471.9,430.2,465.8,429L465.8,429z"/>
<path class="st0" d="M500.8,632.5c2.8,0,5,2.3,5.1,5.3s-2.3,5.8-5,5.8c-3.1,0.1-5.9-2.5-5.8-5.5C495,634.4,497,632.5,500.8,632.5
	L500.8,632.5z"/>
<path class="st0" d="M649.1,583.3c0-4-0.2-7.8,0.1-11.5c0.1-1,1.7-1.9,2.7-2.9c0.6,1.2,1.5,2.3,1.8,3.5c0.4,2.3,0.2,4.7,0.5,7
	C654.7,583.1,653.1,584.1,649.1,583.3L649.1,583.3z"/>
<path class="st0" d="M659.1,583.7c0-3.8-0.2-7.3,0.1-10.9c0.1-0.9,1.4-1.7,2.1-2.6c0.7,0.9,1.8,1.7,1.9,2.7c0.3,2.5,0,5,0.1,7.5
	C663.5,583.4,662.3,584.5,659.1,583.7L659.1,583.7z"/>
<path class="st0" d="M632,583.8c0-5.6-0.1-10,0.1-14.3c0-0.8,0.9-1.5,1.4-2.2c0.7,0.6,1.8,1.2,1.9,1.9c0.2,4.1,0.3,8.2,0.1,12.2
	C635.5,582.1,633.9,582.6,632,583.8L632,583.8z"/>
<path class="st0" d="M672.3,578.8c0,1.4,0.2,2.8-0.1,4.1c-0.2,0.7-1.2,1.7-1.8,1.7c-0.7,0-2-0.9-2.1-1.4c-0.2-3.2-0.2-6.5,0-9.7
	c0-0.7,1-1.2,1.5-1.9c0.7,0.6,1.8,1,2,1.7c0.5,1.8,0.5,3.7,0.7,5.5C672.4,578.8,672.4,578.8,672.3,578.8L672.3,578.8z"/>
<path class="st0" d="M643.9,576.1c0,1.7,0.2,3.5-0.1,5.2c-0.1,0.7-1.1,1.7-1.8,1.7c-0.6,0-1.8-1-1.8-1.6c-0.2-3.5-0.2-7,0-10.5
	c0-0.8,1.2-1.5,1.9-2.2c0.5,0.8,1.4,1.6,1.6,2.5C644,572.8,643.8,574.4,643.9,576.1C643.8,576.1,643.9,576.1,643.9,576.1
	L643.9,576.1z"/>
<path class="st0" d="M684.7,584.4c0-2.7-0.2-5.2,0.1-7.7c0.1-1,1.4-2,2.1-2.9c0.7,1,1.7,1.9,1.9,2.9c0.3,1.7,0,3.5,0,5.2
	C688.8,584.7,687.4,585.3,684.7,584.4L684.7,584.4z"/>
<path class="st0" d="M676.6,583.7c0-2.6-0.2-5.2,0.1-7.7c0.2-1.1,1.5-2.1,2.3-3.1c0.6,1,1.6,1.9,1.7,2.9c0.2,2.2,0.3,4.5-0.2,6.7
	c-0.2,1-2,1.7-3,2.5C677.2,584.5,676.9,584.1,676.6,583.7z"/>
<path class="st0" d="M695.6,585.8c-0.8-0.6-2.4-1.2-2.4-1.9c-0.2-2.5,0-5,0.2-7.5c0.1-0.7,1-1.3,1.5-1.9c0.6,0.7,1.7,1.3,1.8,2
	c0.2,2.8,0.1,5.7,0.1,8.5C696.4,585.3,696,585.5,695.6,585.8L695.6,585.8z"/>
<path class="st0" d="M282.3,463.9h-28.7c-0.3-5.5-0.8-11.1-1-16.8c-0.3-10-0.4-19.9-0.6-29.9c-0.1-8.4-0.2-16.9-0.4-25.3
	c0-2,0.8-2.9,2.9-2.9c7.7,0,15.5-0.3,23.2-0.2c0.8,0,2.4,1.8,2.4,2.9c0.1,9.8,0,19.5,0,29.3c0,5.3,0.5,10.6,0.7,16
	c0.3,6.7,0.4,13.4,0.7,20.1C281.6,459.2,282,461.1,282.3,463.9L282.3,463.9z M277.4,432.4v-28.8c-4.4,0-8.1-0.1-11.8,0
	c-3.1,0.1-5.5,2.4-4.8,5.3c1.1,4.3,0.5,8.3-0.6,12.4c-0.8,2.9,0.3,4.6,3.7,4.8c2,0.1,4.2,0.7,6,1.6
	C272.5,429,274.8,430.8,277.4,432.4L277.4,432.4z M272.9,450.1c0.8,2.9,1.3,5.4,2.2,7.8c0.2,0.6,1.5,1.1,2.3,1.1
	c0.5,0,1.2-1.2,1.2-1.9C278.6,453.6,277.1,451.2,272.9,450.1L272.9,450.1z M274.4,435.1c-3.1-5-9.2-7.7-11.8-6.1
	C266.1,430.9,269.9,432.8,274.4,435.1z M255.8,425.7c0.5,0.1,1,0.1,1.5,0.2c0.6-4.4,1.3-8.7,2-13.1c-0.4,0-0.7-0.1-1.1-0.1
	C257.4,417,256.6,421.4,255.8,425.7L255.8,425.7z"/>
<path class="st0" d="M371.7,382.4c-14.2-1.5-26.6-10.6-29.5-26.8c-2.3-12.9,7.4-30.4,18.2-35.4c9.9-4.6,19.1-2.7,27.8,2.9
	c11.1,7.2,13.9,18,13.4,30.7c-0.5,14.6-14.4,26.1-27.8,28.5C373.3,382.4,372.8,382.4,371.7,382.4L371.7,382.4z M380.2,346
	c0.3,2.3,0.4,4.1,0.9,5.7c0.2,0.8,1.1,1.9,1.8,2c0.7,0.1,1.8-0.7,2.3-1.4c3.5-4.6,1.6-11.9-3.5-14.4c-0.5-0.2-0.9-0.8-1.6-1.5
	c2.3-1.7,4.3-3.3,7-5.3c-1.9-1.3-3.6-2.5-5.3-3.7c-1-0.7-2.6-1.6-2.7-2.5c-0.3-4.1-3-4.7-6.2-4.7c-8.7-0.1-15.6,3.1-20.8,10.3
	c-6.3,8.5-10.3,17.6-6.9,28.2c2.9,9,8.8,15,17.8,18.9c12.6,5.4,26.6-2.8,31.3-10.7c1.8-3,2.8-6.3,0.8-10.2c-2.6,3.6-6,5.7-9.8,3.8
	c-3.3-1.6-6.1-4.3-9.3-6.7c-1.9,1-4,2.6-6.4,3.4c-0.9,0.3-3.2-0.8-3.5-1.6c-0.8-3,3.4-10.4,6.6-12.1
	C373.8,347.7,376.4,348,380.2,346L380.2,346z"/>
<path class="st0" d="M382.2,733.2V746c-1.8,0.2-3.7,0.5-5.9,0.8c-0.3-3-0.5-5.5-0.7-8.1C375.1,732.9,375.6,732.5,382.2,733.2
	L382.2,733.2z"/>
<path class="st0" d="M382.5,495.5c-0.3,4.2-1.6,5.5-5.3,5.2c-3.1-0.3-4.8-2.8-4.5-6.9c0.2-2.9,2.7-4.8,5.7-4.6
	C381.4,489.5,382.7,491.6,382.5,495.5L382.5,495.5z"/>
<path class="st0" d="M363.5,364.7c1-1.4,1.9-2.6,3-4.2c2.2,1.4,4.3,2.7,6.6,4.1c-0.5,1.1-1,2-1.4,2.8c-3.9,8.6-9.1,9.6-15.3,2.4
	c-6.1-7-8.9-15.3-6.1-24.6c0.6-1.9,2.3-3.5,4.2-5.1C353.5,349.9,355.1,358.3,363.5,364.7L363.5,364.7z"/>
<path class="st0" d="M346.1,181.7"/>
<g>
	<path class="st0" d="M824.4,993.5c-0.6-3-2.2-5.7-5.9-5.7c-7.2,0-14.4,0-21.7,0.1c-21.4,0.4-42.8,0.9-64.2,1.4
		c-5.3,0.1-9.7-0.3-13.8-4.9c-10.7-12-22.2-23.2-33.3-34.8c-1.5-1.6-2.6-3.5-4.2-5.7c1.8-0.1,2.9-0.2,4-0.2
		c10.2-0.1,20.4,0.1,30.7-0.3c15.3-0.7,30.5-1.4,45.5,2.6c6.1,1.6,11.5,3.7,12.3,11.2c0.2,2,1.1,4,1.7,6c0.4,0,0.8-0.1,1.2-0.1
		c0.3-1.3,1-2.6,0.9-3.8c-0.3-6.1-0.8-12.2-1.4-18.2c-0.1-0.7-1.3-1.9-2.1-1.9c-4.5-0.5-8.9-0.9-13.4-0.9c-8.6,0-17.2,0.5-25.8,0.5
		c-10.2,0.1-20.4-0.2-30.6-0.1c-8.4,0.1-16.9,0.7-25.3,0.8c-1.4,0-3.1-1-4.2-2c-9-9.6-18-19.2-26.9-29c-2.9-3.1-5.5-6.5-8.9-10.6
		c24.5-0.4,47.9-2.7,71.3-0.5c0.3,11.6,0.6,12.5,5.8,13c0-3.5-0.1-7,0-10.4c0.2-5.2-0.1-6-5.3-6.4c-9.4-0.7-18.9-1.3-28.4-1.2
		c-14.3,0.1-28.6,0.8-42.9,1.1c-2.6,0.1-4.9-0.4-6.9-2.8c-5.1-6-10.7-11.5-16-17.2c-3.6-3.9-7.2-7.9-11.1-12.2c1.3-0.5,2.1-1,2.9-1
		c14.1-0.3,28.2-0.5,42.2-0.8c3.5-0.1,4.7,1.3,5.4,4.6c0.6,2.8,2.2,5.4,3.8,7.9c0.4,0.7,2.5,1,3.3,0.6s1.2-2,1.2-3.1
		c-0.1-2.7-0.5-5.5-0.8-8.2c-0.6-6.3-0.7-6.4-6.9-6.2c-0.5,0-1,0.1-1.5,0.1c-16.7,0.6-33.4,1.3-50,1.8c-1.8,0-4-1.1-5.3-2.4
		c-4.7-4.4-9.2-9.1-13.7-13.8c-2.3-2.4-4.4-5.1-7-8c14.7,0,28.7,0,42.6,0c5.4,0,6.7,1.2,6.8,6.7c0.1,3.7,1.5,4.3,4.6,3.3
		c1-0.3,2-0.4,2.8-0.5c-0.2-3.8-0.3-7.3-0.8-10.7c-0.1-0.9-1.5-2.4-2.3-2.4c-15.9,0-31.9,0.2-47.8,0.2c-3.2,0-7.4,0.7-9.4-0.9
		c-4.5-3.8-8-8.8-12.1-13.5c0.8-0.3,1.1-0.6,1.5-0.6c10.2-0.1,20.4-0.1,30.6-0.1c3,0,3.1,2.3,3.6,4.3c0.3,1.3,0,3.1,0.8,3.9
		c2,2,4.5,3.6,7.3,5.8v-18.7c-2.2,0.1-4.9,0.3-7.6,0.4c-9.6,0.2-19.2-0.1-28.8,0.8c-7.7,0.7-13.7-0.3-17.8-7.6
		c-1.6-2.8-4.4-4.8-6.7-7.2l0.5-0.9c10.1,0.4,20.2,0.8,30.3,1.3c0.9,0,2.1,1.2,2.5,2.1c1,2.2,1.6,4.6,2.4,6.9c0.3,0,0.6,0,0.8,0
		v-12.3c-9.7-0.3-19.2-0.4-28.6-1.1c-5.3-0.4-11.5,2-15.4-4.3c-2.1-3.5-5.1-6.5-8.4-10.7c6.3,0.4,11.4,1.1,16.4,1
		c3.8-0.1,7.4-0.7,9,3.9c0,0.1,0.4,0.1,1.5,0.4c0.2-2.8,0.3-5.5,0.5-8.6c-7.8,0-14.8,0.1-21.8,0c-2.7,0-6,0.5-8-0.8
		c-3.5-2.3-6.2-5.8-9.5-9h16.6c0.1,3.2-0.4,6.5,4.3,6.1c0.2-2,0.2-3.8,0.6-5.5c0.9-3.4-0.7-4.2-3.7-4.1c-4,0.1-8-0.3-12,0
		c-5.7,0.5-10.3-0.7-13.7-5.7c-1.8-2.6-3.9-4.9-6.4-8c3.7,0,6.2,0.2,8.7,0c3.3-0.3,5.8,0.1,6.7,4c0.6,2.4,2.6,2.4,3.7,0.3
		c0.8-1.5,1.3-3.6,0.9-5.2c-0.2-0.9-2.6-1.7-4-1.7c-5.7-0.2-11.5-0.1-17.2-0.1c3.4-1.8,6.9-2.9,10.4-4.2c0.9-0.3,2.1-1.4,2.2-2.1
		c0.2-3.1,0.1-6.3,0.1-9.6h-4.3c-0.2-0.2-0.4-0.3-0.4-0.4c-2.6-14.8-5.2-29.6-7.6-44.4c-0.1-0.7,0.6-2,1.3-2.3
		c6.2-2.6,12.4-5,18.8-7.6c0.3,0.5,0.9,1.4,1.5,2.4c6.3-2.6,10.8-7.2,15.1-12.1c0.5-0.6,0.7-1.6,0.9-2.4c0.6-2.6-0.5-3.7-3-2.8
		c-1.9,0.7-3.7,1.8-6.3,3c0.8-2.1,1.5-3.4,1.9-4.8c1.5-4.6,3.3-9.2,4.2-13.9c1-5.1,2.1-5.8,6.6-2.7c1.1-1,2.2-2.1,3.7-3.4
		c0.2,1.8,0.4,3,0.6,4.3c4.9-1.4,6.3-3.1,6.7-7.8c0.1-0.8,0.4-2,1.1-2.4c7.2-4.4,14.5-8.4,23.4-9.5c-3.5,3.1-6.9,6.2-10.4,9.3
		c0.8,0.2,1.4,0,1.9-0.2c9.2-4.5,18.5-8.6,28.7-10.4c7.5-1.3,14.9-3.1,22.3-4.8c0.8-0.2,1.5-0.7,2.2-1.1c-5.2-0.2-10.1,0.4-15.1,0.8
		c-1,0.1-2-0.9-3-1.4c0.7-0.9,1.3-2.2,2.2-2.5c3.5-1.2,7.1-2.3,10.8-3c4.2-0.7,8.5-1,12.3-1.4c0.1,2.2-0.4,4.8,0.4,5.2
		c2.6,1.5,5.5,1.3,7.9-0.5c-1.1-1.8-2.1-3.2-3-4.7l0.9-1.1c1.4,0.8,2.9,1.7,5,2.9c4.3-1.3,7.7-4.4,12.8-4.3c7.3,0.1,14.6-1,22-1.5
		c17.5-1.2,35.1-2.4,52.6-3.4c6.8-0.4,13.6-0.1,20.4-0.1c0-0.3,0-0.7,0-1h-49.1c0-1.1-0.1-1.9,0-2.6c0.6-6.2,1.6-12.5,1.9-18.7
		c0.4-8.4-2.2-11.9-10.1-13.7c-15.5-3.6-31-7.3-46.7-10.2c-5.8-1.1-11.8-0.5-17.8-0.4c-2.4,0-3.5-0.9-4.9-2.7
		c-2.4-3.2-4.8-6.8-8.1-9c-6.7-4.5-13.8-8.6-21.1-12.1c-10.7-5.1-21-11.6-33.5-11.5c-2.7-13-8.5-21.3-12.9-26.2
		c-10.1-11.3-20.5-22.4-30.8-33.6c-4.4-4.8-8.3-10-13.2-14.2c-3.3-2.8-4.4-5.8-4.2-9.7c0.2-3.6,0.5-7.2,0.6-10.8
		c0.4-12.9,0.8-25.9,1.1-38.8c0-2.9,1-4.1,3.9-3.9s5.8,0.1,8.6-0.1c4.9-0.3,5-0.4,4.7-5.4c-0.1-2.3-0.3-4.1,3-4.3
		c1.1-0.1,2.7-2,3-3.3c0.5-2.4,0.2-5,0.4-7.4c0.3-2.8-0.9-3.3-3.4-3.4c-6.1-0.1-12.3,0-18.3-1c-12.9-2.3-24.4-8.6-36.2-13.8
		c-8.4-3.7-16.5-8.1-25.8-9.2c-5.7-0.6-11.3-1.2-17.2-1.8c0-1.4,0.2-2.6,0-3.8c-0.6-3,0.3-4.1,3.5-3.8c3.2,0.3,6.4,0.1,9.7,0.1
		c0.2-2.1,0.3-3.6,0.4-5c0.2-4.9,0-5.2-5-5.6c-5.5-0.5-9.8-2.8-13.5-7c-5.6-6.5-12.6-11-21.1-12.6c-4.6-0.9-9.3-1.3-14.6-2
		c4.8-5.6,4.4-11.5,1.6-17.6c-0.4-0.9-0.6-1.9-0.5-2.9c0-1,0.3-2.2,0.8-2.9c2.4-3.3,5-6.5,7.6-9.7c8-9.7,15.9-19.4,24-29
		c2.2-2.5,2.9-4.8,0.7-7.2c-3.9-4.3-8.1-8.4-12.4-12.3c-5.5-5.1-13.1-8.4-12.7-17.9c0.1-2.1,0-4.1,0.1-6.1h-46.6
		c-1,4-1.9,7.9-1.2,12.1c0.2,1.2-1.2,2.9-2.2,4.1c-3.8,4.3-7.7,8.4-11.6,12.6c-2.3,2.5-4.3,5.2-6.7,7.5c-1.8,1.7-1.8,2.7-0.3,4.6
		c6.5,8.4,12.9,16.9,19.3,25.4c3.3,4.3,6.5,8.8,10.1,12.8c2.5,2.8,2.4,5.6,1.4,8.8c-1.7,5.6-3.9,11.3,0.4,16.8
		c0.1,0.1,0,0.5-0.1,0.8c-0.3,0.1-0.6,0.4-0.9,0.4c-11.8,0.5-21.2,5.8-29.6,13.9c-3.1,3-8,4.8-12.3,5.7c-6.7,1.2-6.8,0.7-6.1,7.7
		c0,0.2,0,0.5,0,0.8c0,3.3,1.3,4.8,4.9,4.3c1.8-0.3,3.7,0.2,5.9,0.4v10c-2.2,0-4.4-0.3-6.6,0.1c-8,1.4-16.4,2.2-24,4.9
		c-10.5,3.6-20.2,9.3-30.6,13.1c-9.3,3.4-19.1,5.4-28.7,7.9c-2.4,0.6-5,0.3-7.7,0.4c0,2.1,0,4,0,5.8c0,5,2.5,7.5,7.6,7.4
		c0.2,0,0.4,0.2,0.8,0.5c0.2,2.3,0.6,4.8,0.7,7.2c0,2,0.9,2.4,2.7,2.5c3.6,0.2,7.1,0.8,10.9,1.3v9.7c-1.5,0.3-2.9,0.3-4.1,0.8
		c-1.4,0.6-3.7,1.7-3.7,2.5c0.2,4.4-1,7.9-5.4,10.3c1.9,1.1,3.5,1.5,5,2.3c1,0.5,2.2,1.2,2.4,2.1c1.2,4.9,2.2,9.8,3.3,14.8
		c-0.2,0-0.6,0.3-1.1,0.3c-6.9,0.1-11,3.8-13.1,10.1c-1.2,3.6-2.9,7.1-4.1,10.8c-2,5.5-3.8,11-2.9,17.1c1.1,7.6,6.5,10.5,13.2,6.6
		c2.1-1.2,4.2-2.5,6.8-4c0.2,2.7,0.2,5,0.5,7.4c0.3,3.3,0,6-4.9,5.2c0.4,3.7,0.7,7,0.9,10c2.5,0.2,4.4,0.4,6.3,0.6
		c-1,1-2.1,1.3-3.2,1.3c-4.7,0-9.5,0-14.2,0c-8.6-0.1-8.6-0.1-8.2,8.5c0,0.5,0,1.2,0.3,1.4c1,0.8,2.6,2.4,3.2,2.1
		c3-1.4,5.2,0.1,6.5,2c2.4,3.7,4.3,7.8,5.8,11.9c1.1,3.2,2.4,6.9-0.7,10c-0.3,0.6-0.6,1.1-0.9,1.7l-0.2,0.2c0,1.2-0.4,2.7,0.2,3.4
		c0.5,0.5,2.1,0.1,3.2,0.1c0.5,1.8,1,3.8,1.4,5.3c-1.6,0.8-3.6,1.2-3.9,2.1c-0.4,1.1,0.7,2.7,1.4,4.7c1.4-1.4,2.1-2.2,2.9-3
		c0.9,9.1,1.8,17.9,2.7,27c-6.2,0-11.5,0.1-16.9,0c-2.6,0-4.2,0.6-3.6,3.6c0.2,1,0,2,0.1,3c0.5,5.4,0.5,5.5,6.1,5.6
		c2.4,0,3.2,1.3,3.3,3.1c0.4,4.1,0.2,8.4,0.9,12.4c0.6,3.4-1,5.1-3,7.4c-3.5,4-7.3,8.1-9.5,12.8c-4,9-5.9,18.6-3.8,28.7
		c1.7,8,4.5,15.5,10.5,21.3c7.6,7.3,16.2,12.9,27.3,15.1c-1.9,15.2-3.9,30.2-5.8,45.6c-3-0.7-5.2-1.2-7.9-1.8c0,3.5,0.1,6.5,0,9.4
		c-0.2,3.8,1.4,5.6,5.2,6.3c5,1,9.9,2.4,15.5,3.9c-3.1,4.5-5.9,8.8-9,12.8c-1,1.3-2.9,2.4-4.4,2.5c-7.1,0.5-14.2,0.6-21.3,0.7
		c-2.5,0.1-3.8,0.9-3.4,3.6c0.2,1.7,0.2,3.4,0.3,5.1c0.3,0.2,0.6,0.3,0.9,0.5c1.4-1.4,2.8-2.8,4.2-4.2c0.7-0.7,1.5-1.8,2.4-1.9
		c3-0.3,6-0.4,9-0.4c2.2,0,4.5,0.2,7.5,0.3c-2.8,3.8-5,6.7-6.9,9.7c-1.4,2.2-3.2,3-5.9,3c-9.6,0-19.2,0.3-28.8,0.6
		c-1.1,0-2.5,0.6-3.2,1.5c-1.5,1.8-0.5,9,1.3,11.1c0.3-0.5,0.6-0.8,0.7-1.2c2.2-5.2,5.7-8.6,11.8-8.4c3.1,0.1,6.2-0.1,9.4-0.1
		c2.8,0,5.5,0,9.4,0c-2.9,4-4.8,7.1-7.2,9.8c-1.2,1.4-3.3,2.6-5.1,2.8c-6.8,0.6-13.7,0.7-20.5,1c-5,0.3-9.9,0.5-14.9,1.1
		c-1.2,0.2-3,1.7-3.2,2.8c-0.3,2.4,0.2,5,0.5,7.4c0.3,0.2,0.7,0.4,1,0.5c2-6.9,6.8-8.8,13-8.1c0.3,0,0.7-0.2,1.1-0.2
		c7.5,0,15,0,22.6,0c-2.9,3.8-5.6,7.8-8.8,11.4c-1.1,1.3-3.2,2.2-5,2.3c-12,0.4-23.9,0.5-35.9,0.8c-5,0.1-6.6,2.3-5.8,7
		c13.3-3.7,27-3.5,41.6-3.7c-4.8,6-8.7,11.1-13,16c-1.2,1.3-3.5,2.4-5.3,2.4c-14.3,0.2-28.7,0.2-43,0.3c-9.1,0.1-9.7,1-7.9,10
		c0.2,0.8,0.6,1.6,0.8,2.5c0.8-1.8,0.7-3.6,1.3-5.2c0.5-1.3,1.8-2.9,2.9-3.1c4.6-0.7,9.3-1.2,14-1.3c7.7-0.1,15.4,0.1,23.1,0.2
		c2.6,0.1,5.3,0.3,7.8,0.4c0,1,0.1,1.3,0,1.5c-5.3,6.7-10.7,13.5-16.1,20.1c-0.5,0.6-1.5,1-2.2,1.1c-4.7,0.1-9.5,0.2-14.2,0.1
		c-12.2,0-24.4-0.2-36.6-0.1c-1.2,0-3.3,1.3-3.6,2.3c-0.5,2.2-0.2,4.7,0.1,7c0.1,0.8,1.4,2,2.2,2c0.8,0,1.9-1.1,2.3-2
		c1.7-4.2,3.9-6,7.9-5.9c12.3,0.2,24.7,0.4,37,0.6c0.6,0,1.3,0.4,2.2,0.6c-0.9,1.3-1.6,2.3-2.4,3.3c-7.4,8.8-14.8,17.5-22.1,26.3
		c-1.4,1.7-2.7,2.3-5,2.2c-19.8-0.4-39.6-0.6-59.4-1c-2.3,0-3.2,0.8-3.7,2.6c-2.2,9.4-3.1,18.9-1.5,28.5c0.2,1.3,1.2,2.5,1.9,3.7
		c0.4-0.1,0.9-0.3,1.3-0.4c0.2-1.4,0.3-2.9,0.5-4.3c1-7.1,1.8-14.3,3-21.4c0.7-4.4,2-5.1,6.6-5c9,0.1,18,0,26.9,0.2
		c7.8,0.2,15.5,0.7,23.7,1.2c-0.5,0.8-0.7,1.3-1,1.6c-6.4,7.1-12.8,14.2-19.1,21.3c-4.8,5.4-9.5,10.8-14.4,16.1
		c-1,1.1-2.9,2-4.4,2.1c-6.4,0.2-12.7-0.1-19.1,0c-11.2,0.1-22.4,0.3-33.6,0.5c-2.1,0-4,0.3-4.5,2.9c-1.7,7.8-1.8,15.5,0.9,23.2
		c0.6-1.1,0.8-2.3,1-3.5c1-5,1.9-10,2.9-15c0.5-2.3,1.9-3.1,4.3-3.2c10.1-0.2,20.1-0.5,30.2-0.8c5.2-0.1,10.5,0,16.4,0
		c-11.9,13.5-23,26.1-34.2,38.7c-0.7,0.8-2.1,1.3-3.2,1.3c-7.4,0.2-14.7,0.3-22.1,0.3c-8.5,0.1-16.9,0-25.4,0.1
		c-4.5,0-5.5,0.8-5.8,5.3c-0.6,8-1,15.9-1.5,23.9c-0.1,1.1,0.2,2.3,0.3,3.7c3.4-1.3,3.2-3.8,3.4-6.1c0.3-4.5,0.4-9,0.9-13.4
		c0.6-5.5,3.1-7.6,8.6-7.7c8.2-0.2,16.4-0.5,24.7-0.7c4.3-0.1,8.6,0,13.5,0c-0.9,1.2-1.2,1.8-1.6,2.2
		c-10.6,11.3-21.1,22.5-31.8,33.7c-5.7,6-11.6,11.7-17.3,17.6c-0.8,0.8-1.2,2.2-1.8,3.2c0.3,0.2,0.5,0.5,0.8,0.7
		c1-0.6,2.1-1.1,2.9-1.9c10.7-10.8,21.5-21.4,31.9-32.5c12.3-13.2,24.2-26.8,36.3-40.2c7.2-7.9,14.6-15.7,21.7-23.7
		c10.4-11.7,20.7-23.6,31-35.4c11.3-13.1,22.7-26.1,33.9-39.4c7.3-8.7,14.2-17.7,21.2-26.5c14.4-18.1,29-36.1,43.2-54.3
		c11.7-15,23-30.3,34.5-45.5c2.6-3.4,4.7-3.8,8.7-1.3c-1.1,1.5-2.1,3.1-3.2,4.5c-6.6,8.5-13.2,16.8-19.7,25.3
		c-6.9,9-13.6,18.1-20.5,27.1C207.3,825,192,844.5,176.8,864c-9.6,12.4-19.2,24.8-28.8,37.2c-10.4,13.2-21,26.3-31.2,39.7
		c-10,13.1-19.4,26.6-29.5,39.5c-9.9,12.8-20.3,25.2-30.7,37.6c-6,7.2-12.2,14.1-18.4,21.1c-4.4,5-9,9.9-13.4,14.9
		c-1.1,1.2-1.8,2.8-2.6,4.2l1.1,0.9c12.6-12.3,23.7-26,36-38.8c0.8,1.6,1.5,2.9,2.7,5.1c1.3-2.4,3.2-4.4,2.8-5.7
		c-1.5-5.6,2.1-8.8,5-12.5c0.2-0.2,0.6-0.3,1.1-0.5c0.5,0.9,0.9,1.7,1.4,2.8c3.9-2.8,7.3-6.1,7.2-10.8c0-3.2,1.2-5.1,2.9-7.2
		c2.5-3.1,5-6.2,7.8-9.8c0.8,4.8,0.2,8.3-2.9,11.2c-1.5,1.5-2.8,3.2-3.9,5c-0.5,0.8-0.1,2.1-0.1,3.2c0.4,0,0.7,0,1.1,0
		c1.8-2.1,3.6-4.1,5.4-6.2c0.5,3.7-0.7,7.3,0.1,10.3c1.6,6.5-2.7,9.7-6,13.9c-0.7-1.5-1.3-2.6-1.9-3.9c-3.5,3.9-0.1,9.7-4.7,13
		c-0.4-1.5-0.8-2.7-1.1-3.8c-1.5,1.3-2.9,3-2.6,4.3c1.2,5-1.8,8.2-4.5,11.3c-10.5,12.5-21.1,24.9-31.6,37.5
		c-3.5,4.2-6.7,8.8-10.1,13.1c0.4,0.4,0.7,0.8,1.1,1.2c1.2-0.9,2.6-1.6,3.6-2.8c3.4-4.1,6.5-8.5,10-12.6
		c9.7-11.4,19.8-22.5,29.1-34.2c8.1-10.3,15.2-21.3,22.9-31.9c0.7-1,2.1-1.8,3.3-1.9c8.8-1,17.5-2,26.3-2.6c12.7-0.9,25.3-1.6,38-2
		c18.5-0.6,37-0.8,55.6-1.2c16.8-0.3,33.7-0.7,50.5-1.1c10.1-0.2,20.1-0.6,30.2-1c3-0.1,6.3,0.2,8.8-1c6.3-3.1,13-1.9,19.5-2.3
		c9.4-0.7,18.9-0.4,28.3-0.6c7.5-0.1,14.9-0.4,22.4-0.6c7.2-0.2,14.4-0.5,21.6-0.4c6.1,0,12.2,0.5,18.2,0.8c1,0.1,2,0,3-0.1
		c5.5-0.5,10.9-1.3,16.3-1.4c7.1,0,14.2,1,21.2,0.8c8-0.2,16.1-1.1,24.1-1.7c6.4-0.5,12.8-1.4,19.3-1.7c10.3-0.4,20.7-0.6,31-0.6
		c14.1-0.1,28.1-0.1,42.2,0c11.1,0.1,22.2,0.4,33.3,0.4c9.2,0,18.4-0.5,27.6-0.4c8.8,0.1,17.6,0.9,26.3,0.9c3.3,0,4.9,1.3,6.6,3.7
		c6.3,8.5,12.8,16.9,19.3,25.3c4.3,5.5,8.7,10.9,12.9,16.4c7.1,9.2,14.1,18.6,21.3,27.8c5.4,6.8,11,13.5,16.6,20.2
		c3.5,4.3,7.1,8.7,10.7,12.9c0.7,0.8,1.7,1.4,2.6,2c0.3-0.3,0.6-0.6,1-0.9c-1.5-2.5-2.7-5.2-4.5-7.4c-7.7-9.6-15.7-19-23.3-28.7
		c-3.6-4.6-7.5-9-7.2-15.8c0.4-7.3-0.2-14.7-0.5-22c-0.2-3.5-0.8-6.9-1.2-10.4c0.3-0.2,0.6-0.3,0.9-0.4c14.3,15.7,27,32.7,42.4,47.4
		c0-1.4-0.4-2.5-1.1-3.4c-4.1-5-8.3-9.9-12.5-14.8c-11.7-13.7-23.5-27.3-35.2-41.1c-7.2-8.4-14.1-17-21.3-25.4
		c-11.3-13-23-25.8-34.2-38.9c-14.1-16.4-28-33.1-42-49.6c-5.2-6.2-10.5-12.3-15.9-18.3c-5-5.6-10.4-10.8-15.3-16.4
		c-9.3-10.8-18.5-21.9-27.6-32.8c-7.1-8.5-14.1-17.1-21.1-25.6c-7.9-9.5-15.9-19-23.7-28.6c-5.5-6.7-10.9-13.5-16.5-20.6
		c1.4-0.5,2.4-0.8,3.4-1.2c3-1.5,5.3-1.5,7,2c1,2.2,2.8,4,4.4,5.9c4.5,5.3,9.1,10.4,13.5,15.7c6.3,7.6,12.3,15.6,18.7,23
		c6.8,7.9,14.1,15.3,21.1,23c7.1,7.8,14,15.9,21.1,23.6c13.1,14.2,26.5,28.2,39.5,42.5c11.1,12.3,21.8,25,32.8,37.4
		c9.8,10.9,19.8,21.7,29.9,32.4c9.3,9.9,18.8,19.5,28.3,29.2c5.8,6,11.6,11.8,17.3,17.9c6.8,7.1,13.4,14.4,20.1,21.6
		c5.5,5.9,11.3,11.6,16.8,17.5c6,6.5,11.9,13.1,17.8,19.6c0.7,0.8,1.9,1.1,2.9,1.7c0.4-0.4,0.7-0.8,1.1-1.2
		c-9.4-10.2-18.7-20.5-28.2-30.7c-9.6-10.3-19.3-20.6-29-30.9c0.2-0.4,0.3-0.9,0.5-1.3c5.2,0,10.3,0.2,15.5,0
		c7.4-0.4,14.9-1.5,22.3-1.5c13.2-0.1,26.4,0.2,39.6,0.5c1.1,0,2.9,1.3,3.1,2.2c0.8,3.2,2.1,5.2,6,4.3c0.3,5.5,0.9,10.7,0.8,15.8
		c-0.1,3.3,0.9,5.5,3.9,6.8c1.4,0.6,2.7,1.5,4.4,2.4c0.1-1.2,0.3-2.1,0.2-2.9c-0.3-5.7-0.6-11.4-1.1-17.1
		C825.5,1001.4,825.2,997.4,824.4,993.5z M701.3,575.1c0.4,4.9,0.2,9.9,0.2,15.8c-24.6,0.7-48.4,1.4-72.6,2.1v-33.8
		c5.2,0.5,10,0.6,14.7,1.4c13.5,2.2,27,4.5,40.5,7c4.6,0.8,9.3,2,13.7,3.5C699.3,571.6,701.2,573.7,701.3,575.1z M627.5,556.5
		c3.5-3,6.6-3.4,10-2.8c11.7,2.2,23.5,4.1,35.2,6.4c7.5,1.5,14.9,3.6,22.4,5.5c1.2,0.3,2.2,1.2,3.2,2.3
		C675.1,563.8,652.2,558,627.5,556.5L627.5,556.5z M617.5,602.8c-0.3,1.1-2.4,1.9-3.9,2.4c-0.4,0.1-1.7-1.7-1.9-2.7
		c-0.3-1.6-0.1-3.4-0.1-5.1l1.2-0.1l0.8,5.8c0.4,0.1,0.8,0.3,1.2,0.4c0.5-1.2,1.1-2.4,1.4-3.6c0.3-1.3,0.3-2.7,0.5-4.1
		c0.4,0,0.7,0,1.1,0C617.7,598.2,618.1,600.6,617.5,602.8z M612.9,540.7c4.6,2.6,8.4,6.3,10,11.9c-12.8-6.4-25.2-12.7-38.2-19.2
		c0.8-0.2,1.5-0.3,2-0.4c-2.6-0.5-5.3-1-7.9-1.5C592.2,527.5,602.4,534.8,612.9,540.7z M567.5,520c5,1.6,10,3.5,14.9,5.4
		c2.7,1.1,5.4,2.3,8.1,3.5l0,0c-8,0.9-16,1.9-23.2-2.6c-0.8-0.5-1.7-1.1-2.2-1.9c-0.6-1-0.8-2.3-1.2-3.4
		C565.1,520.6,566.5,519.7,567.5,520z M563.7,528.1c1.1,0.2,2,0.3,2.7,0.6c17,8,33.9,16.1,50.8,24.2c2.6,1.3,5.7,2.8,5.7,6.3
		c0,10.5-0.1,21-0.3,31.5c0,0.9-1.4,2.2-2.4,2.5c-14.1,3.3-28.1,6.4-42.2,9.6c-5.1,1.1-10.1,2.3-15.5,3.5l0,0
		C562.8,580.2,563.2,554.4,563.7,528.1z M505.1,706.9c1,6.4,2,12.8,2.8,19.2c0.2,1.2-0.8,2.6-1.2,3.9l-1.5-0.3l0,0
		c-6.1-29.1-12.2-58.2-18.2-87.4c3.9-1.8,4.9-1.3,5.7,2.4c2.8,12.5,5.9,24.9,8.5,37.5C502.8,690.4,503.8,698.7,505.1,706.9z
		 M485.9,717.2c0-0.3,0.6-0.7,1.4-1.7c0.4,1.8,0.8,3,1,4.2c0.9,3.8,1.9,7.7,2.7,11.5c0.2,1.2-0.2,2.5-0.4,3.7l-1.1-0.2l0,0
		C488.3,729,487.1,723.1,485.9,717.2z M462.6,643.7c1.9-0.3,3-0.5,4-0.6c7,31,14,61.8,21,92.6c-2,0.8-3.6,1.4-6.1,2.4
		C475.3,706.6,469,675.3,462.6,643.7z M479.9,738.4L479.9,738.4c-2.4,0.8-4.3,1.5-6.4,2.3c-0.4-2.2-1.3-4.4-1-6.4
		c0.2-1.5,1.9-2.8,3-4.2c1.1,1,2.6,1.9,3.2,3.2C479.4,734.8,479.5,736.6,479.9,738.4z M448.3,644c3.2-0.9,4.9-0.6,5.5,3
		c2.9,16.8,5.9,33.6,9.1,50.4c2.2,11.7,4.8,23.4,7.1,35.1c0.5,2.5,0.6,5.2,1,8.2c-1.4,0.4-2.7,0.8-4.4,1.3
		C458.7,709.5,453.2,676.8,448.3,644z M464.7,743.7L464.7,743.7c-2.6-0.8-5.1-0.9-5.7-2c-0.9-1.8-0.6-4.2-0.5-6.3
		c0-0.4,1.4-1.2,2.1-1.1c0.8,0.1,1.9,0.8,2.2,1.6C463.4,737.9,463.8,740.2,464.7,743.7z M376.2,755.3L376.2,755.3
		c1.3-0.3,1.6-0.4,1.8-0.4c4.9,0.3,7.3,2.9,7.2,7.9c0,1-0.2,2,0.1,3c1,3.8-1.5,4.6-4.2,5c-3,0.4-4.9-1.7-4.8-4.9
		C376.2,762.3,376.2,758.8,376.2,755.3z M370.2,752c0-5.7,0-11.1,0-16.5c0-0.9,0.3-1.8,0.1-2.6c-0.6-3.1,0.4-4.8,4.2-4.8v-88.9
		c4.5-1.7,5.4-1.4,5.6,3.1c0.5,8.8,0.6,17.7,0.8,26.5c0.4,12.7,0.8,25.3,1.2,38c0.2,5.5,0.3,11,0.5,16.5c0.1,2.4-0.3,5.2,3.6,5.2
		c0.5,0,1.3,1.2,1.3,1.8c0.1,7.1,0.1,14.2,0.1,21.6h-17.4V752z M386.8,693.2c-1.2-1.2-2.4-2.3-4.1-4.1l0,0c1.8-1.8,2.9-2.9,4.1-4.1
		c1,1.3,2.8,2.7,2.7,3.9C389.5,690.4,387.8,691.8,386.8,693.2z M388,651.5c-1.6,0.1-2.9,0.2-4.6,0.3c-0.2-2.5-0.4-5-0.4-7.4
		c0-0.5,0.4-1.5,0.7-1.6c5.4-0.9,3.1-5.2,3.6-8.2c0.1-0.6-0.1-1.2-0.2-2.3c-5.8,0-11.6-0.1-17.4,0.1c-0.6,0-1.6,1.4-1.7,2.3
		c-0.2,2.1-0.4,4.3,0.2,6.3c0.4,1.3,2.2,2.1,4,3.8v7.2c-5.3,1.1-5.4,1-5.4-4c0-1.4,0-2.7,0-4.4c-1.8-0.2-3.5-0.5-5.8-0.8
		c0-4,0.2-8-0.1-12c-0.3-3.7,1.4-4.6,4.6-4.5c6.8,0.2,13.7,0.3,20.5,0.6c8.3,0.4,8.6,0.9,8.6,9.4c0,2,0,3.9,0,6.4l0,0
		c-2.4,0.3-4.6,0.5-7.1,0.8C387.7,646.2,387.8,648.8,388,651.5z M340.5,755.5c-2.6-1-4.8-1.8-7.3-2.8c0.9-8.4,1.7-16.7,2.5-24.9
		c1-9.7,2-19.3,3.2-29c1.7-14,3.5-27.9,5.2-41.8c0.3-2.5,0.4-5,0.7-7.5c0.3-2.5,1.2-4.4,4.2-3.9c2.9,0.4,1.7,2.6,1.6,4.1
		c-1.7,17.2-3.5,34.4-5.1,51.7c-1.3,14.1-2.3,28.3-3.5,42.4C341.7,747.6,341.1,751.3,340.5,755.5z M304.4,743.8
		c-2.3-0.5-4.5-1-6.7-1.5c5.8-32.5,11.5-64.7,17.3-97.1h5C314.8,678,309.6,710.7,304.4,743.8z M314.9,737.5c-1.8,1.2-2.8,2.2-4,2.6
		c-0.4,0.2-1.4-1-2-1.5c1.1-1,2.1-2.2,3.3-3C312.5,735.3,313.5,736.4,314.9,737.5L314.9,737.5z M265.3,733.4L265.3,733.4
		c-6.2-0.8-6.3-1-5.5-5.9c2.9-17.6,5.8-35.1,8.6-52.7c1.4-8.8,2.8-17.7,4-26.5c0.5-3.2,1.8-4.7,5.6-3.7
		C273.8,674.2,269.6,703.8,265.3,733.4z M273,719c-0.5,4.7-1.2,9.3-2,14c-0.1,0.8-1.1,1.4-1.6,2c-0.5-0.9-1.5-1.8-1.3-2.6
		c0.9-5.8,2-11.7,3.1-17.5l0.9-0.1l0,0C272.3,716.3,273.1,717.7,273,719z M251.6,634.6c-3.3-0.3-5.2,1.4-5.6,5.1
		c-0.4,3.1,1.6,4.7,8.2,5.9c-1.5,1.3-2.3,2.7-3.3,2.8c-4.3,0.2-8.7,0.1-13.5,0.1c-0.3-6.2-0.7-12.1-0.9-18c0-0.6,1.6-1.9,2.4-1.9
		c9.2-0.3,18.4-0.4,27.6-0.4c10.5-0.1,20.9-0.2,31.3-0.2c20.2,0,40.3,0,60.9,0c0.3,5.3,0.8,9.9,0.6,14.4c-0.1,2.4-1.1,4.9-2.1,7.2
		c-0.4,1-1.8,1.5-2.8,2.2c-0.3-0.2-0.6-0.4-0.9-0.6c0.1-1.8,0.1-3.7,0.4-5.4c0.3-2-0.3-2.8-2.4-2.7c-2.6,0.2-5.9-0.6-7.6,0.7
		c-1.6,1.2-1.6,4.6-2.3,7.3h-3.7v-7.7h-10c-0.4,2.1-0.5,4-1.1,5.6c-0.3,0.9-1.6,1.4-2.5,2c-0.4-0.9-1.2-1.7-1.2-2.6
		c-0.1-1.7,0.2-3.4,0.5-5.6c-2.9,0-5.6-0.4-8,0.2c-1.2,0.3-2.1,2.3-3.1,3.5c-0.8,1-1.6,2.1-2.3,3.1c-0.4-1.3-0.8-2.5-1-3.8
		c-0.1-0.7,0.1-1.5,0.2-2.4c-6.7-2.4-9-1.3-10.7,4.9H295c0.1-1.2,0-2.2,0.3-3c0.7-2.4-0.3-3.2-2.6-3.2c-2.6,0.1-5.2,0-7.5,0
		c-1.7,2.1,0.3,6.5-3.5,6c-4.3-0.6,0.4-4.2-1.5-6.3h-9c-1.5,2.7,0.3,8.3-6.2,6.7v-5.7h-9.4C256,636.8,255,634.9,251.6,634.6z
		 M288.4,605.4c0.1,2.7-1.1,3.9-4,3.8v-40.9l0,0c2.2-0.6,2.8,0.2,2.8,2.4c-0.2,4.7-0.3,9.3-0.1,14c0.2,5.2,0.9,10.3,1.3,15.5
		C288.6,602,288.3,603.7,288.4,605.4z M288.1,559.4c-0.5,0.2-0.9,0.4-1.4,0.6c0.4,1.1,0.8,2.3,1.2,3.6c-1.6,0.1-3.9-0.3-5.6,0.5
		c-1.6,0.7-2.7,2.7-4.7,4.8V559c5.2,0,10.4,0,15.6,0c1.5,0,3,0.2,4.5,0c2.9-0.3,5,0.7,6.7,3.1c1.2,1.8,2.7,3.4,4.3,5.3H292
		C290.5,564.4,289.3,561.9,288.1,559.4z M282.1,605.2c-7-5.1-7.2-7.5-0.8-17.2C281.5,593.7,281.8,599.3,282.1,605.2z M273.4,555.8
		c0.3,4.2-0.3,8-2.9,10.5c-1.4-7.1-0.3-29,2.6-32.1c0.2,2.4,0.7,4.8,0.7,7.1C273.7,546.1,273.1,551,273.4,555.8z M265.4,559.4
		c0.5,0,1,0,1.5,0v8.2c-0.3,0-0.6-0.1-0.9-0.1l0,0C265.8,564.8,265.6,562.1,265.4,559.4z M266.8,551.2c0,1.2-0.3,2.5-0.5,3.7
		c-0.5,0-0.9,0-1.4-0.1c0-3.3,0-6.6,0-9.9c0.1-6.9,0.2-13.8,0.3-20.8c0-2.4,0.6-4.2,3.3-5.2c1-0.4,1.7-2.6,1.9-4
		c0.2-2-0.1-4-0.2-6.1c0.6,0,1.3,0,1.9,0l0,0c0.1,5.5,0.3,11,0.1,16.5c0,1.1-1.7,2.2-2.9,3.6c0.4,0.6,1,1.4,1.5,2.3l-0.9-0.2
		c-0.9,2.4-2.2,4.7-2.5,7.1C266.9,542.5,267,546.9,266.8,551.2z M262.6,539.1c0.3,7,0.2,14.1,0.1,21.2c0,2,0.6,4.6-3.4,5.3
		c0-7.6,0-14.9,0-22.2c0-3-0.3-6-0.3-8.9c0-0.9,0.8-1.8,1.2-2.7c-0.7-6.7-1.6-13.4-2-20.2c-0.2-2.8,2.8-2.3,4.3-2
		c1.8,0.4,3.9,1.5,4.9,3c0.6,1-0.1,4-1.1,4.5c-4.3,2.3-4,6.2-4.3,10c-0.2,1.8-0.8,3.5-1.2,5.3l0,0
		C261.4,534.5,262.5,536.8,262.6,539.1z M256.1,530.6c0.3,8.2,0.8,16.4,1.1,24.6c0,0.8,0,2.1-0.4,2.3c-3.9,2.4-4.1,5.9-3.7,9.8
		c0.1,0.5-0.1,1-0.2,1.4c-5.7,1-6.5,0.3-6.7-5.1c-0.1-5.3-0.6-10.7-0.6-16c0-2.2,0.9-4.4,1.4-6.6c-0.6-0.2-1.3-12.3-0.9-20.5
		c0.4-7.3,0.1-14.7,0.1-22.6l0,0h10.7c0-0.2,0-0.5,0-0.7h-11c0.8-2.6,1.3-6.3,1.9-6.3c2.4-0.1,5.1,0.5,7.1,1.8
		c2.3,1.4,4.1,3.6,5.9,5.6c0.9,1,1.3,2.5,1.9,3.7c1.2-1,2.2-0.3,5.3,4.3c-3.1,0.3-5.9,0.6-8.7,0.8c-2.7,0.2-4.1,1.3-4,4.2
		C255.8,517.7,255.8,524.1,256.1,530.6z M258.5,492.3l0.2-1h21.9c-0.3,2.6-0.5,4.8-0.9,7.9c-1.6-1.3-2.6-2.2-4.1-3.4
		c-0.1,1.7-0.2,3.3-0.3,6.1C269.2,498.3,263.8,495.3,258.5,492.3z M277,513.9c1,2.3,2,4.6,3.3,7.7c-2.4-0.2-3.4-0.3-4.5-0.4
		c-0.2-2.4-0.3-4.5-0.4-6.7C275.9,514.3,276.4,514.1,277,513.9z M277.2,538.2c0-3.5,2.5-4.8,5.3-5.3c2.5-0.4,5.2,0,5.9,3.2
		c0.2,1.1-0.2,2.5-0.8,3.5c-0.7,1.1-2.4,1.9-2.7,3c-0.5,2.6-1.4,5.9-0.2,7.8c1.6,2.7,5.1,3.9,8.6,3c2.1-0.5,4.2-1.3,5.4,1.5
		c-2.9,0-5.7,0.3-8.5-0.1c-2.6-0.4-5.1-1.5-7.6-2.3c-0.1,0.2-0.2,0.5-0.4,0.7l0,0c0.3,0.5,0.7,0.9,1.3,1.7c-2.1-0.1-4-0.1-5.7-0.5
		c-0.5-0.1-0.8-1.8-0.8-2.8C277,547.2,277.1,542.7,277.2,538.2z M245.2,384c4.1-0.2,7.6-0.6,11.2-0.6c10.8-0.1,21.7-0.2,32.5-0.1
		c9.5,0.1,18.9,0.4,28.4,0.9c0.8,0,2.2,1.9,2.2,2.8c0,1-1.5,2.7-2.4,2.7c-5.8,0.2-11.7,0-17.5-0.1c-4.6,0-9.1,0-14.3,0
		c0.8,12.8,1.7,24.7,2.2,36.6c0.3,6.8,0.1,13.5,0.1,20.3c0,3.4,0.8,7,0.1,10.3c-0.7,4-2.5,7.8-4,11.6c-0.3,0.7-1.7,1.1-2.6,1.1
		c-11.6,0.1-23.2,0.1-34.7,0.2c-2.3,0-4.3,0-4.2-3.1s2.6-1.9,4.1-2.4c0.6-0.2,1.4,0.1,2,0.1C247.2,437.8,246.2,411.2,245.2,384z
		 M399.7,328.2c5.2,7.3,6.4,14.7,5.9,23.4c-0.5,9.5-2.1,18.2-9.3,24.7c-9.8,8.9-21,12.3-34.3,8c-6.4-2.1-11.8-5.3-16.5-9.8
		c-8-7.7-8.8-17.3-7.8-27.6c1.1-11.7,6.3-21,15.4-27.9c5.4-4.1,11.9-6.8,19-6.5l0,0C384.2,312.7,392.8,318.4,399.7,328.2z
		 M408.5,336.7c-3.8-5.2-7.4-10.4-11.3-15.4c-4.1-5.4-10.1-8.1-15.9-10c8.1,0,16.5,0,24.9,0c1.9,0,2.5,1,2.4,2.8
		C408.4,321.7,408.5,329.2,408.5,336.7z M407,387.9c0,0.7-1.4,2-2.2,2c-8.3,0.1-16.6,0.1-25-0.5c13.4-4.2,22.4-12.6,27.3-26.2
		C407.1,372,407.2,380,407,387.9z M366,388.1c-0.2,0.4-0.4,0.9-0.6,1.3c-10.1-0.4-20.2-0.8-30.9-1.2V361
		C340.1,375.8,350.4,384.8,366,388.1z M344.4,322.9c-3.7,5.3-6.9,11-10.4,16.7V311h26C353.9,314.1,348.3,317.4,344.4,322.9z
		 M334.6,390.6c7.8,0.4,15.6,1.1,23.4,1.2c14.5,0.3,29.1,0.4,43.6,0.5c0.4,0,0.8,0,1.1,0c7.5,1,6.5,1.7,7-6.2
		c0.7-12.7,0.7-25.4,1-38.1c0.2-7.8,0.5-15.6,0.5-23.4c0-2.9,1.1-3.3,3.5-3.2c7.4,0.4,7.4,0.3,7.3,7.6c-0.1,9.3,0.1,18.6,0,27.9
		c-0.1,13.7-0.2,27.3-0.4,41c0,0.2-0.2,0.4-0.3,0.5l0,0c-13.4,0-26.4,0-39.4,0c-12.9,0-25.8,0.2-38.7,0.1c-6.1,0-12.2-0.4-18.3-0.5
		c-2,0-2.6-0.9-2.6-2.7c-0.3-16.8-0.6-33.6-0.8-50.5c-0.1-7.3,0-14.6,0-21.8c0.4-0.3,0.5-0.5,0.7-0.6c8.9-1.1,8.8-1.1,8.8,7.8
		c0.1,10.2,0.4,20.4,0.6,30.6c0.2,8.8,0.4,17.6,0.4,26.5C332,389.7,332.6,390.5,334.6,390.6z M421.5,415.6L421.5,415.6
		c-7.8-4.5-15.1-8.7-22.5-12.9c4.5,0,8.9-0.1,13.3,0.1c1,0,2.3,1.1,2.8,2C417.3,408.2,419.2,411.7,421.5,415.6z M338.2,403.7
		c-2.9,1.4-5.8,2.8-9.7,4.5C332.2,402.7,334.8,401.6,338.2,403.7z M343.2,405.5c12.7-3.4,25.6-4.1,38.5-3.3c6.3,0.4,12.6,3,18.5,5.4
		c12.3,4.9,22.6,12.8,32.4,21.6c10.2,9.1,16.7,20.4,21.2,33.2c3.6,10.3,6.2,20.7,7.3,31.5c0.9,9.2-0.8,18.2-2.8,27
		c-1.2,5.3-3.2,10.4-5.1,15.5c-0.2,0.7-1.4,1-2.2,1.5l0,0c-0.7,2.8-0.8,5.9-2.2,8.2c-4.1,6.8-8.1,13.9-13.2,19.9
		c-6.6,7.7-14.8,13.8-24.2,18.2c-9.7,4.6-19.7,7.4-30.3,8.5c-12.2,1.3-23.8-1.1-35.1-5.2c-9.8-3.5-19.5-7.9-27.5-14.7
		c-9.2-7.8-17.2-16.9-21.4-28.6c-0.4-1.1-1.5-2-2-3.1c-0.8-1.7-1.4-3.4-2.2-5.3c4.7-0.5,5.4,2.8,6.5,5.1c5.5,11,13.9,19.5,22.9,27.6
		c7.8,7,16.8,11.8,26.3,15.2c11.4,4.1,23.4,5.1,35.8,3.8c13.1-1.4,24.3-6.6,35.5-12.7c11.8-6.4,18.9-16.7,24.8-28.1
		c1.1-2.2,1.9-4.5,3.1-6.6c0.6-1.1,1.9-1.8,2.9-2.6c0-1.9-0.6-3.9,0-5.5c3.9-10.6,6.2-21.6,5.8-32.9c-0.2-7.3-1.4-14.6-2.9-21.8
		c-2.5-11.9-7.5-22.9-14.5-32.7c-7.8-11-18.1-19.5-29.5-26.5c-22-13.5-45.3-14.3-69.1-5.8c-13,4.6-23.5,12.9-30.7,24.8
		c-4.9,8-9.9,16.1-13.8,24.5c-2.5,5.3-3.6,11.4-4.5,17.2c-1.1,7.1-1.3,14.3-2,21.6c-5.3,1.5-5.9,1-5.9-4.5
		c-0.1-10.4,0.7-20.7,3.7-30.5c2.3-7.5,5.8-14.9,9.9-21.6c4.6-7.6,9.8-15.2,16.2-21.4C321.8,414.3,331.9,408.6,343.2,405.5z
		 M479.7,369.1c-5-0.3-10.1-0.7-15.1-0.9c-5.3-0.2-10.6,0-16-0.2c-7-0.2-14.1-0.5-21.1-0.7c-2-0.1-3.3-0.8-3.2-3.1
		c0.1-4.1,0.1-8.2,0.1-12.3c0-2.2,1.1-2.8,3.4-2.7c9.3,0.5,18.3,2.4,26.8,6c7.6,3.2,15.1,6.9,22.6,10.4c1.1,0.5,2,1.7,3,2.6
		C480,368.4,479.9,368.8,479.7,369.1z M429,370.5c8.8,0.2,17.6,0.3,26.4,0.6c11,0.4,22.1,1,33.1,1.5c3.7,0.1,7.4,0,11.3,0l0,0
		c0.1,1.1,0.2,1.8,0.2,2.5s-0.1,1.5-0.2,2.8c-24.9-0.5-49.7-1-74.5-1.5C423.2,372,424.3,370.4,429,370.5z M426.9,379.9
		c3,0.3,6,0.4,9,0.4c9,0,18.1-0.2,27.2,0c6,0.1,12.1,0.6,18.1,0.7c6.1,0.1,12.1,0,18.9,0c-1,26.2-1.9,52.5-2.9,79.2l0,0
		c1.7,0,3.1-0.4,3.5,0.1c1.1,1.2,2.1,2.8,2.5,4.3c0.5,2-0.9,2.4-2.7,2.4c-12.9-0.4-25.9-0.8-38.8-1.1c-2.6-0.1-3.7-1-4.7-3.6
		c-2.1-5.3-0.6-10.6-0.6-15.8c-0.2-12.4,0.1-24.9,0.3-37.3c0.1-6.2,0.4-12.4,0.6-18.6c0-1-0.1-1.9-0.2-3.6h-32.8
		c-0.1-1.9-0.2-3.1-0.2-4.3C424,380.7,424.6,379.6,426.9,379.9z M525,574.2c-19.8-0.9-39.5-1.7-59.2-2.6c-1.1-3.4-0.2-4.9,3.3-4.8
		c8.9,0.4,17.9,0.6,26.8,0.8c8.3,0.2,16.7,0.5,25,0.7C526.4,568.5,526.4,568.4,525,574.2z M474,597.2v-22.6
		c14.8,0.7,29.7,1.5,44.8,2.2V598C503.8,590.1,489.3,589.5,474,597.2z M483.4,639.3c0.6,3.7,1.2,6.8,1.8,10
		c-0.4,0.2-0.8,0.4-1.1,0.6c-0.7-0.7-1.5-1.4-2-2.3c-0.4-0.6-0.4-1.4-0.5-2.2c-1.3-6-1.6-6.2-7.6-5.7c-2,0.2-2.7,1-2.4,2.9
		c0.4,2.4,0.9,4.8,1.3,7.2c-0.3,0.2-0.7,0.3-1,0.5c-0.5-1.2-1.2-2.5-1.5-3.8c-1.5-6.7-1.7-6.9-8.5-6c-0.6,0.1-1.1,0.3-2,0.6
		c0.4,1.7,0.8,3.2,1.1,4.8c0.2,1.4,0.3,2.9,0.5,4.4c-3,1.1-4.9,0.6-5-3c0-0.4-0.1-0.8-0.1-1.1c-0.8-6-2.6-7.3-8.5-5.4
		c-0.9,0.3-1.6,2.2-1.7,3.3c-0.1,1.9,0.5,3.8,0.9,6c-1.7,0.3-2.9,0.6-4.4,0.9c-0.2-1.1-0.4-2-0.6-2.8c-1.2-5.3-4.7-7.4-10.6-6.5
		c0.1,2.1,0.5,4.3,0.3,6.5c-0.1,0.9-1.2,1.7-1.9,2.5c-0.6-0.7-1.3-1.4-1.9-2.2c-0.1-0.2,0-0.5-0.1-0.7c-0.3-1.8-0.3-4.9-1-5.1
		c-2.6-0.6-5.4-0.4-8.1-0.2c-0.6,0-1.5,1.5-1.5,2.4c-0.1,1.8,0.3,3.7,0.6,5.7c-3.1,1.3-4.7,0.5-5-2.8c-0.6-5.2-0.7-5.2-6-5.1
		c-1.8,0-3.7,0.4-5.9,0.6c0.4,2.6,0.7,4.9,1.1,7.4c-1.4,0.3-2.6,0.6-4.6,1.1c0-4.8,0-9,0-13.3c0-0.7,0.2-1.5,0.2-2.2
		c-0.1-6.5-0.2-6.8,6.4-7.1c11.4-0.4,22.9-0.6,34.3-0.6c10.5,0,20.9,0.4,31.4,0.4c10.7,0,21.4-0.3,32.1-0.5c1.6,0,3.3,0,4.8,0.3
		c0.8,0.1,1.9,1.1,1.9,1.7c0.2,5.9,0.1,11.9,0.1,18.2l0,0c-2.6,0-4.9,0-7.3,0c-3.8,0.1-6.1-1.8-7-5.6c-0.3-1.4-0.8-2.9-1.3-4.5
		C489.8,638.8,486.8,639,483.4,639.3z M486.6,654.9c1.9,7.5,3.6,15.1,5.4,23.3c-5.1-0.3-4.6-4.1-5.2-6.4c-1.5-5.2-2.3-10.6-3.2-15.9
		c-0.1-0.8,0.7-1.7,1.1-2.5C485.4,653.8,486.5,654.3,486.6,654.9z M472.1,654.2c0.4-0.1,0.9-0.2,1.3-0.3c1.6,7,3.2,14,4.9,21
		c-0.5,0.2-0.9,0.3-1.4,0.5l0,0C473.7,668.6,473.6,661.2,472.1,654.2z M457.5,654.8c3.7-1.8,4.9-1.3,5.4,2.1c0.3,2,0.5,3.9,0.7,5.9
		c-0.3,0.1-0.6,0.2-0.8,0.3l0,0C461.1,660.2,459.3,657.5,457.5,654.8z M449.7,666.7c0.6,1.8,0.8,3.9,0.7,5.8c0,0.7-1,1.8-1.7,2
		c-0.7,0.1-2.1-0.5-2.4-1.2c-0.9-1.9-1.4-3.9-2.2-6.5l0,0c1-0.9,1.9-2.3,3-2.5C447.8,664.2,449.3,665.7,449.7,666.7z M419,674.2
		c1.1,1.2,2.1,2.4,3.7,4.1l0,0c-1.6,1.6-2.7,2.6-3.7,3.5c-0.8-1.5-2-2.9-2.1-4.4C416.9,676.5,418.3,675.3,419,674.2z M392.3,600.9
		c-0.3-0.8,0.2-2.5,1-3.1c5.2-4.2,11.5-4,17.7-3.8c0.5,0,1.2,0.9,1.4,1.5c1.8,4.8,3.5,9.5,5.4,14.8l0,0c-5.7,2.2-10.8,4.2-16.1,6.1
		c-0.6,0.2-2.1-0.7-2.5-1.4C396.8,610.3,394.5,605.7,392.3,600.9z M438.2,584.1c5.4,7.8,11,15.5,15.9,23.6c2.2,3.6,3.1,8,4.2,12.2
		c0.2,0.6-1.5,2.2-2.6,2.5c-1.5,0.4-4.2,0.7-3.9-1.9c0.7-6.5-4.1-9.9-7.4-14c-6.1-7.7-11.7-15.6-15.9-24.6c-1.3-2.8-1.2-5,2.3-7.5
		l0,0C433.4,577.7,435.9,580.8,438.2,584.1z M462.5,567.6c-0.5,2-0.7,4-1.4,5.8c-0.3,0.8-1.5,1.7-2.3,1.7c-4.6,0-9.2-0.2-13.7-0.6
		c-2.7-0.2-2.8-2.4-2.7-4.5c0.1-2.4,1.6-2.6,3.6-2.6C451.2,567.7,456.5,567.6,462.5,567.6z M448.2,564.5c3-8.6,5.9-17.2,8.9-25.7
		c0.2,0,0.4,0,0.7,0l0,0c0,6.8,0.2,13.5-0.1,20.3c-0.1,3.1-1.8,5.4-5.5,5.1C450.7,564.1,449.4,564.4,448.2,564.5z M460.1,468.8
		c14.4,0.5,28.7,1,43.2,1.6l0,0v8c-6.1,0-12.1,0.1-18.2,0c-5.7-0.1-11.3-0.5-16.9-0.9C460,476.9,461.7,478.2,460.1,468.8z
		 M456.6,599c-0.3,0.6-0.5,2-1.3,2.4c-0.5,0.3-2.1-0.4-2.7-1.2c-3.2-4-6.4-8.1-9.2-12.4c-0.6-1,0-3.6,1-4.4c1-0.8,3.8-0.8,4.5,0
		C452.9,587.6,455.4,592.7,456.6,599z M478.7,561.1c-0.1,0.5-0.9,1-1.3,1.4c-0.5-0.5-1.3-0.9-1.4-1.4c-0.1-2.9-0.1-5.7,0-8.6
		c0-0.5,0.9-1.3,1.3-1.3c0.5,0,1.3,0.8,1.4,1.3c0.2,1.5,0.1,3,0.1,4.5l0,0l0,0C478.7,558.3,478.9,559.7,478.7,561.1z M477.8,526.6
		c0.6,1.9-2.3,2.7-0.6,4.9c1,1.3,0.2,4.1,0.2,6c-2.6,0.3-4.8,0.5-7,0.8c-0.3,3.1-0.6,6.1-0.9,9.1c0.5,0.8,0.9,1.6,1.6,2.8
		c4-0.5,4.5,2.2,4.2,5.7c-0.2,1.6-0.3,3.3,0.1,4.8c0.2,0.9,1.4,1.5,2.2,2.3c0.6-0.7,1.7-1.5,1.7-2.2c0.2-3.2,0.1-6.4,0.1-10.3
		c9.1,0.7,17.8,1.4,26.5,2.1c0,2.6,0.1,4.7,0,6.8c-0.2,5.2-0.2,5.5-5.2,5.4c-11.4-0.2-22.8-0.7-35.2-1.1c0.8-4.5,1.5-9,2.2-13.4l0,0
		c-0.4-4-1-8.1-1.2-12.1c-0.1-2.6,0.8-4.5,2.9-6.7c2.6-2.7,3.8-6.9,5-10.6c0.8-2.7,0.7-5.7,0.9-8.5c0.4-5.2-0.8-8.2-7.5-10.1
		c0-2.5,0.3-5.1-0.1-7.6c-0.3-1.5-1.7-2.8-2.6-4.2c-0.4-0.5-0.8-1-1.2-1.5c0.6-0.4,1.2-1,1.8-1c3.3,0.1,6.7,0.4,10,0.6
		c2.3,0.1,2.5,1.7,2.4,3.4c-0.1,9.1-0.2,18.2-0.4,27.3C477.7,521.7,477.1,524.3,477.8,526.6z M480.8,493.4c0-1.5,0-2.9,0-4.8
		c1.3,0,2.5,0,3.8,0c1.9-0.1,2.4,0.7,2.4,2.7c-0.3,9.6-0.3,19.1-0.7,28.7c0,1.5-0.7,3.5-1.8,4.3c-2.6,1.8-4.4,0.6-4.4-2.6
		C480.3,512.3,480.6,502.8,480.8,493.4z M496.8,523.5h-5.1c0-7.2-0.1-14.3,0-21.4c0-3.7,0.2-7.4,0.5-11.1c0.1-0.7,1.6-1.7,2.5-1.7
		c0.6,0,1.9,1.3,1.9,2C496.8,501.9,496.8,512.5,496.8,523.5z M497.4,529.9c-0.5,4.6-0.9,8.8-1.5,13.1c-0.1,0.8-1.2,1.4-1.8,2.1
		c-0.8-0.7-2.2-1.4-2.3-2.2c-0.5-4-1.2-8.2-0.7-12.1C491.7,527.3,494.6,529.3,497.4,529.9z M499.1,490.1c5.5-1.6,6.5-1.1,6.4,3.9
		c-0.4,12-1.2,24.1-1.8,36.1c-0.2,4.1,0,8.1-0.3,12.2c-0.1,1-1.3,1.9-2,2.8c-0.7-0.9-2-1.8-2-2.7c-0.2-10.5-0.2-21-0.3-31.6
		C499.1,503.9,499.1,497,499.1,490.1z M465,516.9c0.3-2.6-0.4-6.1,3.6-6c1.4,0.1,2.7,2.6,4.5,4.5l0,0c-1.7,2.6-2.7,5.8-4.3,6.1
		C466.4,522.1,464.7,519.8,465,516.9z M512.3,561.9c-0.2,1-1,2-1.5,3c-0.6-0.9-1.6-1.8-1.6-2.6c0.2-6,0.6-12,1-18
		c0.5-8.4,1-16.8,1.4-25.2c0.4-7.2,0.9-14.4,1.2-21.5c0.1-2.8,2.2-3.8,4.1-4c4.2-0.4,8.4-0.1,12.6-0.1c0.2,0.4,0.4,0.8,0.5,1.1l0,0
		c-0.9,0.8-1.7,2-2.8,2.3c-4.7,1.5-7,4.8-8.8,9.2c-4.2,10.6-3.9,21.7-5,32.7c-0.6,6.5-1.1,13-1.5,19.4
		C511.9,559.4,512.5,560.7,512.3,561.9z M515.9,489.4v-10.2c-1.5-0.2-3.1-0.6-4.6-0.4c-2.8,0.4-3.9-0.9-4-3.5c0-3.5,0-7.1,0-10.6
		c0.3-0.2,0.7-0.3,1-0.5c7.9,8.2,15.8,16.4,24.4,25.3L515.9,489.4L515.9,489.4z M509.9,482.3c1.9,0.1,3.7,0.1,2.7,2.8h-49l0,0
		c-0.4-1.6-0.7-2.7-1-3.7c5.8,0,11.5-0.1,17.1,0C489.7,481.7,499.8,482,509.9,482.3z M448.5,439c-1.5-0.4-4.1-1.4-4.1-2.3
		c-0.1-2.3,0-5.2,3.7-5.3c1.7,0,3.5-0.2,5.6-0.3v7.9C451.7,439,450,439.4,448.5,439z M454,441.8c-0.5,2.8-1,5-1.6,8.1
		c-1.8-3-3.1-5-4.7-7.6C449.8,442.2,451.6,442,454,441.8z M450.7,427.2c-2.8,0.5-5.6,1.1-8.5,1.4c-1.1,0.1-2.2-0.5-3.4-0.8
		c0.4-1,0.4-2.2,1.1-2.9c2.3-2.5,3.8-5.9,8.3-5.8c1.2,0,3.2-3.3,3.4-5.2c0.3-2.5-0.9-4.8-4.1-5.2c-2.8-0.3-4.2,1.1-5,3.5
		c-0.2,0.6-0.5,1.3-0.4,1.8c1.4,5.1-3.1,6.9-5.7,10.7c-2.1-4.2-4-7.9-5.9-11.8c6.9-5.2,12.1-13.9,23.5-10l0,0
		c0,6.6-0.1,13.5,0.1,20.4C454.2,425.9,452.9,426.8,450.7,427.2z M432.1,401.5c-1.7,2.4-3,4.1-4.7,6.6c-1.6-2.2-2.9-4.1-4.8-6.6
		H432.1z M387.1,610.4c0,1.5-1.3,4.2-2.3,4.3c-1.8,0.2-4.1-0.7-5.4-2s-1.5-3.5-2.3-5.7c-1.2,1.8-2.6,3.3-3.2,5.1
		c-1.5,4-4.8,4.9-8.3,5.5c-2.7,0.5-5-0.5-6.1-3.2c-2.2-5.5-2.5-11.2-0.2-16.7c0.5-1.2,2-2.6,3-2.6c1.1,0,2.8,1.5,3,2.7
		c1,4.1,1.5,8.2,2.2,12.4c2.7-9.3,4.2-10.7,9.9-9.2c0.2-0.2,0.4-0.3,0.6-0.5c1.4-1.6,2.9-3.2,4.3-4.8c1.2,2,2.8,3.8,3.4,5.9
		C386.7,604.4,387.2,607.5,387.1,610.4z M334.3,613.7c0.1-3.1,0.1-6.7,0.6-10.2c0.2-1.2,1.8-2.8,3-3.1c0.8-0.2,2.4,1.3,3.1,2.4
		c0.7,1,0.8,2.5,1.7,3.8c0.4-2.6,0.4-5.2,1.2-7.7c0.6-1.7,2.1-3.3,3.6-4.3c0.6-0.4,3.3,0.6,3.4,1.3c1.4,7.6,0.3,15.2-0.9,22.2l0,0
		C344.6,616.6,339.6,615.2,334.3,613.7z M332.9,600c-0.6,4.6-1,8.7-1.6,12.7c-0.3,2.4-1.6,3.8-4.3,3.5c-1.7-0.2-3.5,0.1-5.2,0.1
		c-4.3,0.1-5.3-0.7-5-4.8c0.6-6.7,0.8-13.5,2.4-19.9c1.9-7.8,4.8-8.6,9.6-5.8c1.3,0.8,2.5,2.5,2.9,4
		C332.4,593.4,332.6,597,332.9,600L332.9,600z M285.8,511c-0.4-2-0.8-4.1-1.2-6.1c1.4-0.2,2.8-0.7,4.2-0.6c0.6,0,1.5,1.2,1.6,1.9
		c1.5,8.9,2.9,17.8,4.4,27c-2.5,1.1-3.7-0.3-4.4-3.5c-1.2-5-2.9-10-4.2-15c-0.3-1.2,0.1-2.6,0.2-3.9
		C286.2,510.8,286,510.9,285.8,511z M445.9,494.6c-1.2,4.6-2.5,9.3-3.7,14c-0.4,0-0.8,0-1.1,0c-0.4-3-1-6-1-9
		c-0.2-10.7-2.6-20.9-7.2-30.9l0,0c6.3-0.9,6.9-1.5,7-7.6c0-2.2-0.2-4.5-0.2-6.7c-0.1-3.6-1.7-4.8-5.4-6.1
		c-4.8-1.6-9.1-1.7-13.9-1.5c-1.7,0.1-3.7-2.2-5.4-3.6c-9-7.7-19.7-12.4-31.1-14.5c-12.9-2.3-25.3,1-37.2,6.4
		c-21.5,9.6-31,27.4-35.6,49.5c-4.5-0.6-5.5,2.2-5.3,6.4c0,0.7-1.6,2-2.6,2.1c-6.5,0.6-7.4,1.6-6.6,8.2c0.2,1.5-0.7,2.1-2.7,2
		c-1.7-11.7-0.6-23.4,2.5-34.6c2.7-9.8,7.5-18.7,13.6-26.8c4.5-5.9,9.1-11.8,14.4-16.9c8-7.7,18.4-11.2,29.1-13.5
		c15.8-3.4,31.4-2.8,46,4.4c16.1,7.9,30.8,18.1,40.1,33.9c4.6,7.8,7.9,16.5,10.5,25.2c3.6,11.8,5.2,24,3.3,36.4
		c-0.8,5.4-2.2,10.7-3.7,15.9c-1,3.4-2.6,6.8-4.2,9.9c-0.5,1.1-2.1,1.6-3.2,2.3c-0.1-1.1-0.5-2.2-0.3-3.3c1.6-11.3,3.4-22.6,5-33.9
		C447.3,499.7,446.8,497.2,445.9,494.6z M422.5,453.4c-0.2-2.4-0.5-4.4,3.2-4.3c3.3,0.1,4.4,1.3,4.1,4.5c-0.3,3.1-0.1,6.2-0.4,9.3
		c-0.1,0.8-1.1,2.1-1.9,2.1c-1,0.1-2.8-0.5-3-1.2c-0.7-2.4-2.3-2.6-4.3-2.7c-2.4,0-4.8,0.2-7-0.3c-1.4-0.3-3.4-1.6-3.5-2.7
		c-0.4-2.5,1.7-2.9,3.8-2.8c2.8,0.2,5.6,0.4,8.9,0.7C422.5,454.8,422.6,454.1,422.5,453.4z M339.7,527.2c0.9,1.4,2.4,2.5,3.3,3.9
		c0.5,0.7,0.2,1.9,0.3,2.8l0,0c1,0.2,2.1,0.1,2.9,0.6c5.2,3.3,10.4,6.8,15.5,10.3c1,0.7,1.7,1.7,2.5,2.5c-0.2,0.4-0.4,0.8-0.6,1.3
		c-2.4-0.5-5.1-0.4-7.2-1.5c-4.2-2.2-8.2-5-12.1-7.8c-1-0.7-1-2.6-1.5-4c-1.1,2-2.1,1.4-3.3,0c-8.3-10.1-13-21.7-14.3-34.6
		c-0.4-3.6,0.5-7.3,0.8-11.1c3.6,0,4.7,1.8,4.4,4.5C329,506.4,333,517.2,339.7,527.2z M359.8,540.5c-2.8-1-5.3-3-7.9-4.7
		c-2.3-1.5-2.9-3.3-0.4-5.9l0,0c-7.6,1.6-9.6-4.1-12.4-8.8c-7.3-12.3-8.4-25.3-4.1-38.8c1.1-3.4,1.8-7.4,6.9-7.5
		c0.9,0,2.7-2.5,2.5-3.6c-0.7-4.1,1.9-6.3,4.4-8.4c7.8-6.9,16.6-12.3,27.5-11.3c15,1.4,26.7,8.6,34.8,21.5
		c7.7,12.3,9.5,25.7,6.1,39.4c-3,12.1-10,21.3-21.4,27.3C383.6,546.1,371.8,544.8,359.8,540.5z M400.1,456.9
		c-10.8-7.7-23.3-12.1-37-6.8c-1.2,0.4-2.7,0-4,0c0.1-0.5,0.1-1,0.2-1.4l0,0c13.9-7.4,35.8-4.2,46.2,8.3c2.6,3.2,5.6,6,8.2,9
		c6.4,7.2,10.1,15.9,11.1,25.5c0.1,1.1-1,2.3-1.5,3.5c-0.7-1-1.8-2-2.1-3.1C418,477.9,411.7,465.2,400.1,456.9z M419.5,452
		c-4.6,0.7-8.3,1.9-11.9,1.7c-2-0.1-3.9-2.4-5.8-3.8c-7.3-5.2-15.8-7.8-24.5-7.8c-14.6,0.1-27.4,5.2-37.4,16.4
		c-0.9,1-2.6,1.8-3.9,1.9c-3.5,0.3-5.7,3.2-5,6.7c0.3,1.4,0.4,3.3-0.2,4.4c-9.7,15.8-10.4,32.1-3.3,49c3.5,8.2,8.2,15.8,15.3,21.2
		c11.2,8.6,23.6,15,38.3,13.2c9.7-1.2,18.8-4.5,26.5-10.8c2.5-2,5-3.4,8.4-3.3c2.1,0,4.2-1.2,6.3-1.9c-1.4,7-7.4,13.2-15.2,15.3
		c-0.2-0.8-0.4-1.6-0.5-2.4c-0.1,0.2-0.2,0.4-0.3,0.5c-0.8,1.3-1.4,3.3-2.5,3.9c-4.8,2.3-9.8,4.3-14.7,6.2c-1,0.4-2.4-0.1-3.5,0.2
		c-1.4,0.3-2.8,1.3-4.2,1.4c-5.8,0.3-11.8,1.2-17.4,0.2c-7.3-1.4-15.2-2.4-21.1-7.8c-1.3-1.2-2.3-2.8-3.4-4.2
		c-0.5-0.1-1.8,0.2-2.3-0.4c-10.2-9.5-18.2-20.5-21.3-34.4c-0.2-1,0.1-3,0.7-3.2c2.9-1,2.7-3.2,2.7-5.5c-0.1-6.1-0.2-12.2-0.3-18.2
		c0-1.1-0.2-2.6-0.9-3.1c-5.2-4-3-9.2-1.4-13.5c3.8-10.3,8.6-20.4,17.5-27.1c16-12.1,33.8-18.7,54.1-14.2c4.7,1,9.2,3.1,13.5,5.2
		c5.5,2.7,10.8,5.8,15,10.5C417.3,449.2,418.1,450.3,419.5,452L419.5,452z M315.2,490c0.4,5.8,0.8,11.6,0.9,17.5
		c0,2.5-3.3,3.2-5.9,2l0,0c0.6-2.8,1.3-5.1,1.6-7.4c0.2-1.4,0.3-3-0.1-4.4c-0.4-1.7-1.3-3.2-1.9-4.8c-0.4-1.2-1.3-3.3-0.9-3.5
		c1.2-0.8,2.8-1.3,4.3-1.4C313.9,488,315.2,489.2,315.2,490z M300.9,503c-1.6-6.4-1.2-6.7,7.2-6.9
		C309.7,503.4,309.6,503.4,300.9,503z M305.8,507.4L305.8,507.4c0.7,3,0.1,6.9,4.9,6.6c0.5,0,1.3,1.7,1.5,2.7
		c3.2,13,9.3,24.3,18.8,33.8c1.4,1.4,1.9,3.9,2.4,5.9c0.4,1.9,0.1,4,0.1,6.3h1.5c-0.2-0.3-0.4-0.6-0.7-0.9l0,0v-7
		c3.1,1,5.4,2.5,4.5,5.8c-0.2,0.9-1.8,1.5-3,2.1h3.8c0.1-1.2,0.3-2.4,0.5-3.8c24.5,13.7,49.2,9.2,74.3,2c-1.4,2.3-2.8,4.6-4.2,7
		c0.2,0.3,0.4,0.5,0.6,0.8c8.4-4.6,16.6-9.5,23.8-16.2c0.4,0.2,0.7,0.3,1.1,0.5c-0.9,2.5-1,5.8-2.7,7.4c-4.5,4.4-9.3,8.6-14.6,12
		c-5.5,3.5-11.6,6.4-17.7,8.6c-13.8,4.9-27.9,5.6-42.3,2.2c-10.9-2.6-21.2-6.8-30-13.6c-19.4-14.7-30.9-34.1-33.7-58.4
		c-0.2-1.5-0.7-2.9-0.8-4.4c0-0.8,0.3-2.3,0.8-2.4c0.9-0.2,2.3,0,3,0.6C300.8,507.9,301,508,305.8,507.4z M433.5,527.5
		c-0.2,0.8-0.8,1.4-1.7,2.8c-0.7-2.8-1.2-4.7-1.7-7c-3.4,2.9-6.6,5.6-9.9,8.4c-0.3-0.2-0.7-0.5-1-0.7c10.7-22.4,13.2-44.6-2.4-66.4
		c5.1,1.6,9.3,2.6,13.2,4.3c1.1,0.5,1.3,2.8,2,4.3c5.1,11.6,6.4,23.7,5,36.1C436.3,515.4,434.7,521.5,433.5,527.5z M436.7,461.8
		c0.2,3-1.1,3.7-4.1,3l0,0v-13c2.5-0.8,3.9-0.2,3.9,2.6C436.5,456.9,436.5,459.4,436.7,461.8z M289.4,402.1
		c6.6-0.3,12.7-0.6,18.9-0.7c0.9,0,2.3,1.3,2.5,2.2c1,3.8,1.7,7.8,2.2,11.7c0.2,1.2,0.1,2.9-0.6,3.8c-7.1,9.5-14.3,18.9-21.5,28.2
		l0,0C290.5,432.6,290,417.6,289.4,402.1z M243.2,473.2c0.9-1,3.9-0.3,6-0.3c11,0,21.9,0,33.3,0l0,0c-0.1,2.1,0,3.7-0.4,5.2
		c-0.2,0.8-1.3,1.9-2,1.9c-11.8,0.3-23.6,0.4-35.5,0.5c-0.7,0-1.4-0.3-2-0.5c-0.1-0.3-0.2-0.4-0.2-0.5
		C242.5,477.4,242,474.6,243.2,473.2z M292.8,571.2c5.8-0.3,11.6-0.6,17.5-0.4c1.6,0,3.1,1.6,4.6,2.5c-0.1,0.6-0.3,1.1-0.4,1.7l0,0
		c-7.2,0-14.3,0.1-21.5-0.1c-0.7,0-1.4-1.3-2.1-2C291.6,572.3,292.2,571.2,292.8,571.2z M312.5,579.1c-6.7,6.3-13.3,12.7-20.7,19.7
		l0,0c0-6.8-0.1-12.2,0.1-17.6c0-0.6,1.2-1.7,1.9-1.8C299.8,579,305.9,578.6,312.5,579.1z M293.1,601.5c8.3-8,16.6-16.1,25-24.3
		c1.8,1.1,3.2,1.9,4.7,2.8c-10.3,9.6-20.5,19.1-30.9,28.8l0,0C290.6,605.7,291,603.5,293.1,601.5z M283.2,652.2
		c-0.5,5.1-0.8,10.2-1.7,15.2c-0.3,1.8-2.4,3.4-4.1,5.6C276,664.7,279.2,654,283.2,652.2z M264.5,652h4.5c0.6,5.4-0.2,6.5-5.4,7.4
		C263.9,657,264.2,654.6,264.5,652z M266.3,666.3c0.3,0.2,0.6,0.5,0.9,0.7c-0.7,3.8-1.2,7.7-2.3,11.4c-0.3,0.9-2.4,1.3-4.5,2.3l0,0
		c0.4-4.4,0.3-8,1.2-11.2C262.1,668.1,264.7,667.4,266.3,666.3z M287.6,644.9L287.6,644.9h5c-1.2,9.6-2.3,18.9-3.7,28.2
		c-2.4,15.9-5,31.7-7.6,47.6c-0.7,4.3-1.9,8.5-2.5,12.8c-0.5,3.8-2.3,3.9-5.2,2.4C278.2,705.7,282.9,675.5,287.6,644.9z
		 M285.8,734.8c3.7-19.6,7.6-39.2,11.2-58.8c1.7-9.2,3-18.4,4.2-27.7c0.5-4,3-2.6,5.5-2.8c-5.2,31.7-10.3,63.1-15.5,94.4
		C285.2,740.4,284.8,740,285.8,734.8z M322.4,698c2.4-16.5,4.8-33,7.1-49.6c0.5-3.9,3.1-3.1,6-3.1c-4.2,34.6-8.3,69-12.5,103.9
		c-3.2-0.8-5.7-1.5-7.8-2.1C317.7,730.2,320.1,714.1,322.4,698z M359.8,645.9h4.8c-0.8,38.6-4.7,76.8-7.7,115.8l0,0
		c-2.8-1-4.5-1.6-6.6-2.3C353.4,721.6,356.6,683.8,359.8,645.9z M395.1,648.9c1.1,8.9,2.4,17.8,3.4,26.7c1.8,16.8,3.6,33.6,5.2,50.5
		c1,10.5,1.6,21.1,2.7,31.7c0.5,4.6-3,4.2-6.3,6.2c-3.4-39.8-6.7-78.6-10-117.3C393.4,644.8,394.7,645.8,395.1,648.9z M404.1,648.3
		c-0.1-0.6,0-1.2,0.1-2.1l0,0c5.6-0.9,5.7-0.8,6.4,4.4c2.8,20.7,5.9,41.4,8.6,62.1c1.6,12.2,2.7,24.4,4.1,36.6
		c0.1,1.1,0.4,2.2,0.7,3.3c0.9,3.1-1.6,3.5-3.5,4.2c-2.4,0.9-3.1-0.7-3.3-2.7c-1.2-8.9-2.3-17.7-3.5-26.6c-0.6-4.8-1.4-9.6-2-14.4
		c-1.5-11.8-2.9-23.7-4.3-35.6C406.4,667.8,405.2,658,404.1,648.3z M419.5,645.3c1.9-0.1,3.5-0.2,5.1-0.3
		c5.5,35,10.9,69.8,16.5,104.9c-2.4,0.5-4.5,0.9-7,1.5C429.2,716.1,424.4,680.9,419.5,645.3z M433.9,643.8L433.9,643.8
		c1.8,0.1,3.3,0.1,5.1,0.2c1,7.4,1.9,14.8,3.1,22.1c2.1,12.4,4.5,24.8,6.7,37.2c1.4,8.1,2.6,16.2,4.1,24.2c0.8,4.1,1.9,8.2,2.8,12.3
		c1.2,5.2,1.1,5.4-4.6,6.6C443.4,712.7,438.1,678.6,433.9,643.8z M491.1,721.7c-2.1-9-4.4-17.9-6.2-27c-3.5-16.4-6.7-32.9-9.9-49.4
		c-0.2-0.9,0.5-2.1,0.8-3.1c0.9,0.8,2.3,1.4,2.6,2.4c1.7,7,3.1,14,4.8,21c2.3,9.8,4.9,19.6,7.2,29.4c2.3,9.6,4.4,19.1,6.6,28.7
		c0.6,2.6,1.3,5.3,2,8.4c-1.6,0.5-3,1-5.1,1.6C492.8,729.6,492,725.6,491.1,721.7z M496.1,708.9c0.5-0.1,1-0.2,1.5-0.3
		c2.5,7.3,4.3,14.8,4.7,22.5c-0.5,0.1-0.9,0.2-1.4,0.3C499.4,723.9,497.8,716.4,496.1,708.9z M502.4,677.3
		c-1.1-4.6-2.2-9.2-3.3-13.9c-0.6-2.5-0.9-5.2-1.7-7.6c-0.9-2.6,0.4-3.6,2.5-3.8c2.2-0.3,4.5-0.4,6.7-0.3c3,0.2,4.9-0.9,4.9-4
		c0-6.7,0-13.5-0.2-20.2c0-0.7-1.9-1.9-2.9-1.9c-4.5-0.2-9-0.2-13.5-0.1c-7.5,0.1-14.9,0.2-22.4,0.3c-3,0-7.5-3.8-7.5-6.6
		c0-14.1,0-28.3,0.1-42.4c0-0.6,0.1-1.2,0.2-2l0,0c5.6-0.3,5.7-0.2,5.8,4.9c0.1,7.8,0,15.7,0,23.9c0,0,0.4,0.2,0.8,0.4
		c4.5,2.4,8.4,3.2,12.5-1.5c10.9-12.2,32.3-5.7,40.5,5.5c6.5,8.9,10,18.4,10,29.1C535,656.1,523.3,673.4,502.4,677.3z M559,546h-6.1
		c-0.5-3.2-1-6.4-1.4-9.5c-0.6-0.1-1.1-0.1-1.7-0.2c-0.5,1.7-1.3,3.4-1.4,5.1c-0.4,4.9-0.6,9.8-0.9,14.8c0,0.5,0.1,1.1-0.1,1.5
		c-0.4,0.7-1,1.4-1.6,2c-0.5-0.7-1.4-1.4-1.4-2.2c0-5.5,0.2-11,0.3-16.5c0.1-3.2,0-6.4,0.2-9.6c0-0.6,0.9-1.1,1.4-1.7h-5.2
		c-1.3,18.6-1.7,37.2-1,55.9c2.9,0.3,3.9-0.4,3.9-3.2c0-6.6,0.3-13.2,0.6-19.8c0-0.8,0.8-1.5,1.2-2.3c0.5,0.7,1.3,1.4,1.3,2.1
		c0,6.5,0,12.9-0.1,19.4c0,1,0,1.9,0,2.9l0,0c3,0.6,4-0.4,4.1-3.2c0.2-8.7,0.6-17.4,1-26c0.1-2,1.1-4,1.4-6c0.1-0.6-0.7-1.3-1.1-2
		c4.9-1,5.2-0.8,5.2,3.5c0,3.5-0.9,7.3,0.1,10.4c2.5,7.8,0.3,15.6,0.7,23.4c0.4,6.7,0,13.4-0.4,20.1c-0.1,1.4-1.5,3.3-2.8,3.8
		c-6.3,2.7-12.8,4.9-19.2,7.3c-2,0.8-2.8-0.1-3.9-1.7c-2.9-4.2-6-8.4-9.1-12.4c-1.4-1.9-2-11.4-0.6-13c0.2-0.3,0.6-0.6,0.9-0.6
		c4.5,0,4.5-2.9,4.5-6.3c0-10.2,0.2-20.4,0.5-30.6c0.2-9.2,0.6-18.5,0.9-27.7c0.1-2.3-0.6-4.4-2.9-4.4c-1.1,0-2.8,2.3-3.1,3.8
		c-0.6,3-0.4,6.2-0.5,9.3c-0.2,9.1-0.5,18.1-0.7,27.2c-0.1,5.9-0.7,6.4-6.7,5.3c0-5.4-0.4-10.9,0.1-16.2c1.3-12.5,2.8-25,4.7-37.4
		c0.9-6.1,4.4-10.5,11.3-11.1c0.7-0.1,1.7-1.5,1.8-2.5c0.3-2,0.1-4.1,0.1-7c4,4.3,7.6,7.8,10.9,11.6c4.5,5.2,8.8,10.6,13,15.9
		c0.8,1,1.6,2.4,1.6,3.6C559,529.8,559,537.8,559,546z M500.6,443.7c0.3-0.2,0.7-0.3,1-0.5l0,0c3.6,3.7,7.1,7.5,10.6,11.2
		c9.5,10.3,19.1,20.6,28.5,31c7.1,7.8,13.7,15.8,16.6,26.2c0.1,0.4,0.2,0.9-0.4,1.8c-2.4-2.8-4.6-5.6-7.1-8.2
		c-10.7-11.6-21.4-23.1-32-34.8c-3.7-4.1-8.9-6.9-10.5-12.8c-0.2-0.6-1.6-1.2-2.5-1.2c-3.8-0.1-4.9-2.5-4.8-5.7
		C500.2,448.4,500.5,446.1,500.6,443.7z M424.8,336.2c-0.3-3,0.7-3.5,3.8-3.5c13,0.4,24.9,4.2,36.6,9.4c7,3.1,13.9,6.5,21,9.6
		c9.4,4.1,19.2,6.8,29.6,6.8c1.5,0,3,0.1,4.5,0.1c2.9-0.1,2.6,2,2.9,3.8c0.3,2.4-1.2,2.8-2.9,2.9c-9.9,0.3-19.7-0.5-28.9-4.5
		c-9.2-4-18-9-27.4-12.6c-8.1-3.1-16.6-4.9-25-7c-4.5-1.1-9.2-1.7-14.2-2.6l0,0C424.8,337.7,424.9,336.9,424.8,336.2z M394.2,293.5
		c8.9,1.4,16.8,4.8,22.9,11.9c4.2,4.8,9,8.9,16.2,8.5c4.2-0.2,1.5,3.3,3.3,5.4c-5.2,0-9.2,0.1-13.1,0c-4-0.1-7.9-0.4-12.5-0.6
		c0.1-3.1,0.3-6.2,0.4-9.5c-1.5-0.4-3-0.7-4.4-1c-0.7-6.9-0.7-6.9-8-7.5c-2.4-0.2-4.7-0.7-7-1c-3.7-0.4-6-2.5-7.6-6.2
		C387.8,293.4,391.1,293,394.2,293.5z M400.6,303.9c0.6,0.1,1.2,0.1,1.9,0.1c0.1,0,0.2,0.1,0.3,0.1l0,0c1.1,3.7,0.8,4.2-2.9,4.2
		c-16.5-0.2-33.1-0.4-49.6-0.6c-2,0-4,0.3-5.9,0.5c-2.1,0.2-3.7,0-3.6-2.8c0-2.5,1.1-3,3.4-3.2c3.7-0.3,7.5-0.7,11-1.8
		c2-0.6,4.2-2.3,5-4.1c1.3-3,3.6-3.8,6.2-3.8c4.7,0,9.5,0.4,14.2,0.7c0.7,0,1.6,0.5,1.8,1C385.8,302.5,393.3,303.1,400.6,303.9z
		 M374.5,289.4c-3.5-0.1-7,0-10.4,0.4c-4.7,0.5-5.8-0.3-6.8-5.6c8.9-3,17.9-4.1,27.2-1.2C380.6,290.8,382.6,289.6,374.5,289.4z
		 M356.3,279.4c0.5-2.2,1-5.3,2.1-8.1c0.6-1.5,2.3-3.6,3.5-3.7c6.3-0.1,12.5,0.2,18.8,0.6c0.8,0,1.9,1.1,2.2,1.9
		c0.9,3,1.5,6.2,2.1,9.2h-28.7V279.4z M352.5,188.7c9.8-1,19.5-1.8,29.3-2.5c1.1-0.1,2.2,0.4,3.3,0.3c4.5-0.1,6,2.2,5.5,6.1
		c-13.8,0.4-27.7,0.9-42,1.3l0,0C347.4,189.6,347.5,189.2,352.5,188.7z M344.5,203.9c0.9-1,2.3-1.6,3-2.8c2.9-4.8,7.5-5.1,12.2-5.1
		c7.6,0,15.2-0.3,22.7,0.5c3,0.3,6.2,2.4,8.7,4.4c5.1,3.9,9.9,8.2,14.8,12.5c1.1,0.9,1.9,2.2,2.7,3.7c-26.3-4.2-52.2-3.6-77.9,3.7
		c-0.2-0.3-0.4-0.6-0.6-0.9C335,214.5,339.7,209.2,344.5,203.9z M340.1,240.7c-3.8-5-7.2-10.3-11-15.9c3.2-1.2,6.4-3.1,9.7-3.6
		c10.2-1.6,20.4-2.7,30.7-3.9c0.8-0.1,1.7,0.3,2.4,0.7c4.7,3,9.3,6,14.2,9.2c-4.9,5.9-9.8,11.8-14.5,17.7c-0.9,1.2-1.7,2.9-1.6,4.3
		c0.1,0.7,2.3,1.2,4,2c-1,2.6-2,5.2-2.9,7.7c5.5-5.2,11-10.3,16.7-15.6c-0.9-0.5-2.4-1.3-4.4-2.3c2.2-2.7,4.1-5.2,6.2-7.5
		c2.2-2.4,4.3-4.9,6.8-7s3.2-4.3,0.7-7.9c7.2,1.5,13.4,2.8,20.6,4.3c-4,4.8-7.4,8.8-10.7,12.9c-7.2,9.2-14.4,18.4-21.7,27.5
		c-0.7,0.9-2.2,1.6-3.4,1.7c-6.8,0.2-13.6,0.2-20.4,0.1c-1.2,0-2.9-0.6-3.6-1.6C351.7,256.1,345.8,248.4,340.1,240.7z M309.9,319.4
		v-6.1c9.6-0.3,16.4-5.7,23-11.7c5.9-5.3,12.7-8.2,20.7-8.2c0.9,0,1.8,0,2.6,0.1c0.6,0.1,1.2,0.3,2.1,0.5c-2.3,5.2-7,4.7-11.1,5.3
		c-1.9,0.3-4,0-6,0c-2.9,0-4.2,1.1-3.5,4.2c0.3,1.3,0.2,2.7,0.3,3.9c-0.5,0.3-0.6,0.6-0.8,0.6c-7,0.3-7.2,0.3-6.7,7.3
		c0.3,3.4-0.7,4.4-4,4.2C321.1,319.2,315.7,319.4,309.9,319.4z M318.8,352.4v19.2H265C272,360.8,302.9,349.8,318.8,352.4z
		 M223.8,368.5L223.8,368.5c-0.2-2-0.4-3.4-0.7-5.5c3-0.2,5.8,0.1,8.2-0.8c13.9-4.7,27.9-9.1,41.5-14.7
		c12.6-5.3,25.1-10.2,38.8-11.6c1.2-0.1,2.7-0.3,3.7,0.2c1.1,0.5,1.8,1.8,2.7,2.8c-0.9,0.6-1.7,1.6-2.6,1.7
		c-14.8,2.3-28.8,6.9-42.3,13.1c-11.4,5.3-22.6,11-35.1,13.4C233.5,368,228.9,368,223.8,368.5z M240.6,380.8L240.6,380.8
		c-1-5.3-1-5.3,3.9-5.4c16.8-0.1,33.6-0.1,50.4-0.2c8,0,15.9,0,24.1,0c0.2,1.8,0.3,3.5,0.5,5.5h-78.9V380.8z M241.2,414.6
		c0.2-0.3,1-0.6,1.2-0.5c0.4,0.2,0.7,0.8,1,1.3c0.1,0.2,0,0.5,0,0.7c0.1,2.4,0.2,4.8,0.3,7.4l0,0
		C242.2,422.4,240.4,415.6,241.2,414.6z M232.8,450.5c-0.1,1.2-1.1,2.4-1.8,3.5c-1.8,2.9-3.7,5.7-5.5,8.5c0.3,0.2,0.6,0.5,0.9,0.7
		c1.5-1.2,2.8-2.5,4.4-3.5c1.1-0.6,2.5-0.7,3.7-0.7c0.2,0,0.8,1.5,0.5,1.9c-0.7,1-1.7,1.9-2.8,2.6c-0.5,0.3-1.6-0.1-2.2,0.1
		c-2.2,1.1-5.7,1.5-3.3,5.8c-3.6-1.8-4.6-4.7-4.9-7.9c-0.5-7.1,2.7-13.2,5.4-19.5c1.4-3.2,3-6.2,4.8-9.1c1.5-2.4,5.9-2.9,9.2-1.1
		l0,0c-7.6,1.5-7.5,2.5-4.3,7.7C233.6,442.4,233.1,446.4,232.8,450.5z M238.3,460.4c-0.3-0.2-0.2-1.3,0.1-1.6
		c1.9-1.7,3.9-3.5,7.8-1.9l0,0c-2.4,1.7-4.1,3-6,4.1C239.8,461.2,238.8,460.8,238.3,460.4z M239.6,487.4c-0.6-2.8-0.6-4.2,2.6-4.1
		c12.2,0.3,24.4,0.4,36.6,0.5c2.7,0,3.1,1.4,2.6,3.6H239.6z M236.4,519.8c0-0.5-0.3-0.9-0.5-1.8c1.5-0.3,2.7-0.6,4-0.8l0,0
		c-3.5,0.8-4.8-1.1-5.6-4.2c-1.8-6.7-5.5-11.8-12.6-13.4c-0.3-2.5,0.5-4.1,3.1-4.1c5.6,0.1,11.2,0.2,16.8,0.4c0.3,0,0.6,0.3,2,1
		h-18.9c0,0.3,0,0.6,0,1H243c0,5.9,0,11.4,0,16.8c0,1.3,0.1,2.7,0,4c-0.1,1.7,1.1,3.9-1.9,4.4C238.5,523.4,236.7,522.7,236.4,519.8z
		 M240.5,546.4c-0.5-3-1.2-6.1-1.2-9.1c0-1.5,1.4-3,2.7-4.2C241.2,537.6,244.3,542.4,240.5,546.4z M241.8,547.3
		c0.5,0.2,1.1,0.3,1.6,0.5l0,0c0,6.7,0,13.3-0.1,20c0,0.6-0.9,1.1-1.5,1.7c-0.5-0.6-1.3-1.2-1.3-1.8c-0.3-5.4-0.7-10.9-0.7-16.3
		C239.8,549.9,241.1,548.6,241.8,547.3z M237.9,524.8c3.9-0.1,5.3,1,4.3,3.5c-0.3,0.7-1.8,0.9-2.8,1.4
		C239,528.2,238.5,526.7,237.9,524.8z M225.8,577.2c-1.1,0-2.3-0.2-3.2-0.6c-0.7-0.3-1.6-1.4-1.4-1.8c0.3-0.7,1.3-1.7,1.9-1.7
		c3.5,0,6.9,0.3,10.4,0.6c2.6,0.2,5.1,0.8,7.7,1.2c0-0.3,0.1-0.5,0.1-0.8l0,0c-2.1-0.1-4.2-0.2-6.3-0.3c0-0.4,0-0.8,0-1.2h30.6
		c-1.1,0.9-2.1,1.9-3.6,3.2c0.9-0.3,1.4-0.3,1.7-0.5c4-4.2,9.3-2.6,14.1-2.8c1-0.1,2,1.2,2.9,1.8c-1,0.5-1.9,1.5-2.9,1.5
		c-12.5,0.5-25.1,0.8-37.6,1.2C235.3,577.1,230.5,577.2,225.8,577.2z M236.2,581.5c5.9-1.7,8.2-1.3,9.1,1.8
		c3.9-3.3,25.4-4.5,27.7-1.4c-0.9,0.2-1.8,0.5-3.1,0.8c3.3,1.7,4.9,9.2,3.4,15.4c-13.9-6.3-27.8-5.3-42.2,1.2c0-4.4,0-8.1,0-11.9
		c0-1,0.1-2,0.2-2.9c0.1-1.1,0.4-2.2,0.6-3.2c1,0.5,1.9,1,2.8,1.5c0.5,0.3,1,0.6,2,1.2l0,0C236.5,582.7,236.4,582.1,236.2,581.5z
		 M233,671.8c-5.9-4-11.7-8.6-14.7-15.6c-2.7-6.3-5.2-12.6-4.3-19.8c0.8-6.2,1.2-12.3,4-18.1c4.1-8.4,10-14.5,18.4-18.2
		c11.3-5,23-4.4,34.2-0.4c3.8,1.4,6.8,5.6,9.8,8.9c1.8,1.9,3,4.2,6.3,3.7c0.9-0.1,2.1,1.1,3.4,1.8c6.8-6.6,13.8-13.4,20.7-20.1
		c0.5,0.2,0.9,0.4,1.4,0.6c0,2.9,0,5.9,0,8.8c0.1,4.4,0.2,8.7,0.2,13.1c0.1,6.2-1.8,8.4-8,8.9c-1.8,0.1-3.7-0.2-5.7-0.3
		c-0.2-2.1-0.4-3.7-0.6-5.4h-21.4c-0.1,1.9-0.2,3.4-0.5,6.2c-6.7-9.6-14.6-14-25.4-10.9c7.2,1.2,14.4,2.4,18.7,10.7
		c-6.3,0-12,0-17.6,0c-5.1,0-10.2,0.2-15.3,0.2c-2.3,0-3.1,1-2.9,3.2c0.3,6.2,0.7,12.4,0.8,18.7c0.1,2.4,1.1,3.3,3.5,3.2
		c4.8-0.1,9.7,0,15,0c-0.2,3.3-0.3,6-0.6,9.8c-4.2-1.9-7.7-3.5-11.3-5.2c0.6,6.5,3.3,11.2,10.2,12.3c-0.5,4-1,7.5-1.6,12.1
		C243.8,677.2,238,675.1,233,671.8z M252.5,681.7c1.1-10.2,2.1-20.5,3.1-30.7c0.5-5.5,0.5-5.6,6.8-5.3l0,0
		c-3.8,27.9-7.7,55.6-11.5,83.6c-1.7-0.4-2.7-0.7-3.8-1C249,712.6,250.8,697.1,252.5,681.7z M257.8,718.6c-0.3,3.5-1,7-1.7,10.5
		c-0.1,0.5-0.9,0.9-1.4,1.3c-0.4-0.5-1.2-1.1-1.1-1.6c0.6-5.4,1.3-10.7,2-16c0.5,0,1.1,0,1.6,0l0,0
		C257.3,714.8,258,716.7,257.8,718.6z M271.8,750.5c0.5-0.6,2.2-0.5,3.1-0.2c7.9,2.2,15.8,4.6,23.6,6.9c3.5,1,7,1.7,10.5,2.6
		c1,0.2,2,0.6,3,0.9c0,0.3-0.1,0.6-0.1,1h-48.5l0,0C266.5,757.5,269.1,753.9,271.8,750.5z M260.9,766c0.6-0.8,2.2-1,3.4-1
		c6.3,0,12.7,0.3,19,0.3c10.6-0.1,21.2-0.1,31.8-0.6c6.9-0.3,13.3,1.3,19.5,3.9c4.1,1.7,8.2,3.5,12.2,5.8
		c-30.7,0.7-61.4,1.5-93.1,2.2l0,0C256.4,772.7,258.5,769.2,260.9,766z M250.8,780.8c0.4-0.6,1.8-0.6,2.7-0.7
		c10.3-0.3,20.7-0.6,31-0.8c23.7-0.4,47.4-0.8,71.1-1.1c1.9,0,3.9,0.7,5.7,1.4c5.4,2.2,10.7,5,16.2,6.7c2.7,0.8,6.1-0.1,9-1
		c7.9-2.5,15.7-5.4,23.6-8.1c0.5-0.2,1-0.3,1.5-0.4c5.1-0.9,5.1-0.9,5.2,4.3c0.1,2.7,0,5.5,3.3,6.9c0.6,0.2,0.7,1.4,1.3,2.5l0,0
		c-59.9,1-119,2-179,3C245.4,788.9,248,784.8,250.8,780.8z M205.7,846c3.8-8.8,10.7-9.3,18.7-8.9c7.9,0.4,15.8,0.1,23.7,0.1
		c19.1-0.1,38.1,0,57.2-0.2c12.1-0.1,24.2-0.5,36.3-0.8c12.5-0.3,24.9-0.6,37.3-0.9c12.4-0.3,24.8-0.7,37.3-0.8
		c13.9-0.2,27.9-0.2,41.8-0.4c5.3-0.1,10.7-0.2,16-0.6c2.6-0.2,3.4,1.6,3.9,3.1c0.4,1.4,0.2,3.5-0.7,4.7c-1.4,1.9-3.4,3.2-5.3,4.6
		c-1.9,1.5-1.9,2.6,0,4.1c2.1,1.7,4.1,3.1,7.1,2c1-0.4,2.5,0.8,3.8,0.9c1.3,0.1,3.3,0.1,4-0.7c2.9-3.2,5.3-6.5,10.6-4.1
		c1.2,0.5,3.8-1.9,5.6-3.2c1.3-0.9,2.3-2.1,4-3.7c1,3.7,1.3,6.3,2.5,8.4c2.3,4.2,6.2,4.6,10.8,1.6c4-2.6,4.4-2.5,7.3,1.4
		c-1.9,1.7-3.8,3.6-5.9,5.2c-0.8,0.6-2,1-3.1,1c-13.1-0.1-26.1-0.5-39.2-0.5c-15.5,0-31,0.5-46.5,0.6c-20.4,0.1-40.9,0.2-61.3,0.1
		c-14.2-0.1-28.4-0.5-42.6-0.5c-16.2-0.1-32.4,0-48.6,0.1c-13.9,0.1-27.9,0.3-41.8,0.4c-13.7,0.1-27.3,0-41.3,0
		C200,854.8,203.7,850.7,205.7,846z M482.7,833.9h4.6c2.5,5.4,8,4.8,13.6,6.5c-1.8,0.7-2.9,1.5-3.8,1.3c-4.2-0.8-7.5,0.7-10.5,3.5
		c-1.8,1.8-3.6,1.9-5.7-0.4l0,0C484.1,841.6,484.3,837.9,482.7,833.9z M120.3,951.2v17.5c-0.3,0-0.6,0-0.9,0
		c-0.3-5.8-0.7-11.6-1-17.4C119,951.2,119.7,951.2,120.3,951.2z M115.1,948.9c0.4,7.9-0.1,12.3-1.3,13.3
		C110.8,955.5,111.3,950.9,115.1,948.9z M113.7,976.6c-0.4-4.6-1-8.3,1.1-11.9C115.2,968.4,117.4,972.3,113.7,976.6z M107.2,958.6
		c2.4,4.8,1.2,8.7-4,12.9C102.7,966.2,102.7,961.7,107.2,958.6z M103.3,992.8c0.3-10.9,1.9-17.2,4.6-18.8
		C109.8,980.9,109.5,987.3,103.3,992.8z M100,968c2.3,7.1-2.7,10.8-5.7,16.3C92.6,977,96.2,972.7,100,968z M93.7,1005.9
		c-2.1-5.4-0.5-16.6,3.6-20.1C96.2,993.2,100,1000.3,93.7,1005.9z M289.1,998.9c-62.9,1-125.8-0.6-188.7,3.9
		c1.7-6.4,4.2-8.5,10.5-8.4c12.9,0.3,25.9,1,38.8,1.1c10.6,0.1,21.1-0.5,31.7-0.6c4.9-0.1,9.7,0.3,14.6,0.4
		c13.9,0.3,27.9,0.5,41.8,0.8c6.4,0.1,12.9,0.5,19.3,0.5c10.6,0.1,21.3,0,31.9,0C289,997.4,289.1,998.1,289.1,998.9L289.1,998.9z
		 M691.4,985.3c4.5,5.5,8.8,10.6,12.8,15.9c0.9,1.2,0.8,3.4,0.5,5.1c-0.7,4.6,0.2,6.9,4,8.3v-7.6c4.4,3.7,4.4,4.8,4.3,9.9
		c-0.1,5.8,0.7,11.7,0.9,17.5c0.2,4.7,0,9.4,0,14.2c-0.3,0.2-0.7,0.4-1,0.6c-1.9-2.3-3.9-4.5-5.7-6.8c-2.5-3.1-5.7-6-7-9.6
		c-1.2-3.4-0.1-7.6-0.3-11.4c-0.2-3.4-0.8-6.8-1.2-10.2c-0.6,0-1.2,0-1.8,0.1c-0.4,5-0.8,10.1-1.2,15.1c-0.2,0-0.5,0-0.7,0
		C693.8,1012.9,692.6,999.3,691.4,985.3L691.4,985.3z M660.4,957.6c2.3,0.6,4.9,1,7.2,2c1,0.4,1.9,2.1,2,3.2c0.3,3.5,0,7,0.2,10.5
		c0.1,1,1.2,1.9,1.8,2.9c0.5-1,1.3-1.8,1.5-2.9c0.3-2.2,0.3-4.4,0.5-6.8l0,0c2.4,1.4,2.9,3.2,2.2,5.8c-0.6,2.1-0.4,4.5-0.2,6.7
		c0.1,0.8,1.3,1.4,2,2.1c0.6-0.7,1.5-1.3,1.8-2.2c0.5-1.3,0.7-2.7,1-4c0.4,0,0.9,0,1.3,0c0.2,1.7,0.5,3.4,0.4,5.1
		c-0.1,3.1-0.6,6.2-0.6,9.3c0,1,1.4,2,2.1,3c0.5-1,1.5-1.9,1.5-2.9c0.2-3.2,0.1-6.5,0.1-10.4c2.3,2.5,5.5,3.9,3.6,7.9
		c-0.3,0.6-0.2,1.5-0.1,2.2c0.3,7.8,0.6,15.6,1,23.4c0.1,2.6,0.5,5.1,0.8,8.3c-6.2-7.9-12-15.2-17.8-22.5c0.1-0.2,0.2-0.3,0.3-0.5
		c1.5,1.3,3,2.7,4.6,4c0.2-0.1,0.4-0.2,0.6-0.3c-0.4-1.2-0.6-2.5-1.3-3.5c-3.6-5.2-7.5-10.2-11-15.5c-1-1.4-1.2-3.4-1.4-5.2
		c-0.3-4.8-0.5-9.5-0.7-14.3l-1.7-0.1c-0.4,3.6-0.9,7.2-1.3,10.7c-0.2,0-0.5,0-0.7,0v-16H660.4z M657,953.3
		c0.4,5.9,0.8,11.8,1.3,17.7c-0.5,0-0.9,0.1-1.4,0.1c-0.5-5.9-0.9-11.8-1.4-17.7C656.1,953.4,656.5,953.3,657,953.3z M652.5,949.4
		c0.5,7.3,1,14.6,1.4,22c-0.5,0-1,0.1-1.5,0.1l0,0c-0.5-7.3-1-14.6-1.5-22C651.5,949.5,652,949.4,652.5,949.4z M629.9,944.2
		c1.5,1.5,2.7,3.3,4.4,5.5c-21.3-1.4-42.1-0.9-62.9,1.6c-0.1,0.4-0.1,0.8-0.2,1.2c1.3,0.3,2.7,0.9,4,0.9c8-0.2,15.9-0.9,23.9-0.9
		c9.6,0,19.1,0.6,28.7,0.9c0.2,0,0.5,0.2,0.7,0.2c7.5-1.6,11.1,3.2,14.6,8.6c5.3,8,10.8,15.9,16.2,23.8c0.2,0.4,0.3,0.9,0.8,2
		c-6.5,0-12.5,0-18.5,0c-8.3,0.1-16.7,0.3-25,0.3c-4.3,0-8.7-0.5-13-0.6c-7.6-0.2-15.1,0-22.7-0.4c-4.2-0.2-8.5-1-11.3-4.7
		c-1.4-1.9-3.1-1.9-4.4-0.4c-3.2,3.8-7.4,3.9-11.9,4c-9.8,0.2-19.7,0.6-29.5,0.9c-17.9,0.6-35.8,1.3-53.7,1.7
		c-13.2,0.3-26.3,0.4-39.5,0.5s-26.4-0.1-39.6,0c-13.3,0.1-26.6,0.4-39.9,0.5c-13.7,0.1-27.4,0-41,0.1c-22.2,0-44.3,0.1-66.5,0.2
		c-16.2,0-32.3,0.1-48.5-0.2c-8-0.1-15.9-1-23.9-1.1c-9.4-0.1-18.7,0.4-28,0.5c-11,0.1-21.9,0-33.8,0l0,0c3.7-5.7,7-10.6,10.2-15.6
		c4.7-7.2,9.2-14.6,14.1-21.6c1.1-1.6,3.5-3.1,5.3-3.2c16.2-1.2,32.3-2.5,48.5-3c13.5-0.4,27,0.3,40.6,0.4c15.9,0.1,31.9,0,47.8,0
		s31.9,0.2,47.8,0.2c17.7-0.1,35.3-0.3,53-0.6c13.8-0.2,27.6-0.6,41.4-0.8c19.8-0.2,39.6-0.2,59.4-0.3c14.8-0.1,29.6-0.4,44.5-0.6
		c11.6-0.1,23.1,0,34.7-0.2c13.8-0.2,27.7-0.7,41.5-1c9.6-0.2,19.2-0.4,28.8-0.4C627.9,942.5,629.1,943.4,629.9,944.2z M599.3,902.4
		c8.5,11.3,16.8,22.8,25.2,34.3c0.3,0.4,0.4,0.8,1.1,2.3c-161.9,1.6-323.2,5.9-484.8,2.5l0,0c8.8-12.6,17.3-25,25.9-37.3
		c0.7-1,2.3-1.9,3.5-2c12.8-0.4,25.5-0.5,38.3-0.8c13.4-0.3,26.9-0.7,40.3-0.8c14-0.1,28,0,42,0c9.8,0,19.6-0.2,29.4-0.1
		c8.8,0,17.7,0.2,26.5,0.2c10.3,0,20.5-0.3,30.8-0.4c5.7,0,11.4,0,17.1,0c8.3,0,16.7-0.1,25-0.1c11.2-0.1,22.4-0.2,33.5-0.4
		c12.9-0.2,25.8-0.6,38.7-0.7c13.6-0.1,27.3,0.1,40.9,0.1c14.9,0,29.9-0.2,44.8-0.2c5.5,0,11,0.1,16.5,0.6
		C596,899.7,598.2,901,599.3,902.4z M571.7,863.1c7.1,9.8,14.1,19.6,21,29.5c0.1,0.2,0.1,0.5,0.2,1.3c-4-0.6-8.1,0.9-11.5-2.4
		c-0.3-0.3-0.9-0.4-1.3-0.5c-10.8-0.6-21.6-0.7-32.4,1.7c-11.8,2.7-23.8,3.5-35.9,3c-13.8-0.6-27.6,0.3-41.4,0.5
		c-7.2,0.1-14.4-0.1-21.7,0c-11.8,0.2-23.6,0.5-35.4,0.8c-10.7,0.2-21.3,0.5-32,0.5c-12.3,0-24.6-0.1-36.8-0.3
		c-8.9-0.1-17.9-0.4-26.8-0.5c-4.7,0-9.4,0.4-14.1,0.4c-13.6,0-27.2-0.3-40.7-0.2c-13.1,0.1-26.1,0.4-39.2,0.6
		c-16.9,0.3-33.8,0.7-50.7,1.1c-0.3,0-0.7-0.2-1.5-0.5c2.3-3.9,4.3-7.6,6.7-11.2c4.7-7.2,9.4-14.3,14.3-21.4
		c0.6-0.8,1.9-1.7,2.9-1.7c15.3-0.6,30.6-1.2,45.9-1.4c19.8-0.3,39.6-0.2,59.3-0.2c8.5,0,17.1,0.3,25.6,0.2
		c11.8-0.1,23.6-0.5,35.4-0.4c12.6,0.1,25.1,0.7,37.7,0.9c5.6,0.1,11.2-0.2,16.8-0.2c7,0,13.9,0.1,20.9,0c8.3-0.2,16.7-0.8,25-0.8
		c7.8-0.1,15.7,0.4,23.5,0.5c6.3,0.1,12.7,0,19.1,0.1c7.2,0,14.3,0.1,21.5,0.1c6.1,0,12.2-0.2,18.3-0.3c8.1-0.2,16.2-0.4,24.2-0.5
		C569.6,861.7,571.1,862.2,571.7,863.1z M529.6,858.3c0.8-2.9,2.4-4.7,6-4.1c2.6,0.5,5.2,0.7,7.7,1.3c1.2,0.3,2.2,1.2,3.3,1.8
		c-0.1,0.3-0.2,0.6-0.3,0.9l0,0L529.6,858.3L529.6,858.3z M551.8,836c4.5,6.4,8.8,12.9,13.1,19.5c0.3,0.5,0.5,1.1,0.8,1.9
		c-5.7,0.7-10.8,1.6-15.4-3.7c-2.1-2.4-7-2.3-10.7-3.1c-2.7-0.7-5.5-1.1-8.2-1.7c0-0.5,0-0.9,0-1.4c2.2-1.3,4.4-2.6,7.5-4.5
		c-2-1.3-3.3-2.6-4.9-3.1c-6.7-1.9-13.5-2.5-20.1,0.4c-1,0.4-2.2,0.5-3.7,0.8c2.5-5.4-2.9-5.1-4.7-8.3c4,0,7.9,0,11.8,0
		c9.9,0,19.9-0.1,29.8,0.1C548.8,833,550.8,834.6,551.8,836z M538.7,818.7c2.3,3.4,4.9,6.5,8,10.4c-1.8,0.1-2.9,0.3-4,0.3
		c-16.4,0.1-32.9,0.1-49.3,0.2c-11.4,0-22.8,0-34.2,0.1c-11,0.2-21.9,0.7-32.9,0.9c-10.6,0.2-21.2,0-31.7,0.2
		c-12.3,0.3-24.5,0.9-36.8,1.2c-14.2,0.3-28.4,0.4-42.6,0.5c-1,0-2.2-1.1-3-2c-1.6-1.9-6.9-3.4-8.7-1.9c-0.8,0.7-0.9,2.3-1.5,3.9
		l0,0c-28.7,0.5-57.7,0.9-87.4,1.4c3.2-5,6.6-9.3,9-14c3.3-6.5,9-5.9,14.7-6c11.2-0.1,22.4-0.3,33.6-0.4c13.8-0.1,27.6,0,41.5,0
		c17.8,0,35.6,0,53.3,0.1c8.7,0,17.4,0.3,26.1,0.3c11.2,0.1,22.4-0.1,33.6,0c9.3,0,18.7,0.2,28,0.3c8.8,0.1,17.7,0.2,26.5,0.5
		c13.6,0.3,27.1,0.8,40.7,1.1c3.5,0.1,7-0.2,10.4-0.4C534.8,815.3,537,816.2,538.7,818.7z M395.7,805.4c6.5-2.4,11.5-1.9,12.2,1.3
		C398.1,808.4,396.7,808.3,395.7,805.4z M472.2,810c2.4-1.6,4.5-3,6.9-4.5c1,1.6,1.9,2.9,2.9,4.5H472.2z M521.9,797.3
		c3.2,4.4,6.8,8.4,10.9,13.5c-6.7-0.2-12.2-0.3-17.6-2.5c-0.7-0.3-1.7-1.1-1.8-1.8c-1.3-6.1-6.8-4.8-10.7-5.9
		c-2.1-0.6-4.4-0.2-6.6,0c-0.8,0.1-1.6,0.7-2.5,1.1c0.5,0.8,0.7,1.9,1.4,2.4c1.3,1,2.8,1.6,4.2,2.5c0.8,0.6,1.5,1.5,2.2,2.3
		l-0.5,1.2c-3.5-0.8-7.1-1.3-10.6-2.3c-2.4-0.7-5-1.9-2.5-5.3c0.2-0.3-1.1-2.3-2-2.5c-4.2-1.2-8.2-0.5-11.5,2.5
		c-4.5,4.2-10.4,2.6-15.6,4.2c-0.3,0.1-1.1-0.2-1.3-0.6c-1.7-4-6.2-2.5-8.9-4.6c-0.1-0.1-2,1.3-1.9,1.9c0.1,1.4,0.9,2.7,1.6,4.4
		c-2.2,0.6-4.4,1.7-6.6,1.8c-6.2,0.4-12.4,0.4-18.6,0.5c-0.8,0-1.8-0.4-2.2-1c-1.9-2.6-3.3-5.6-5.5-8c-1.1-1.2-3.2-2.2-4.9-2.2
		c-5.7,0-11.4,0.5-17.1,0.6c-4.4,0.1-8.9-0.3-13.3-0.4c-3.1-0.1-6.2-0.6-9.2-0.2c-1.6,0.2-3,2.1-4.5,3.2c1.3,1.2,2.5,3.1,4,3.4
		c3.6,0.7,7.4,0.5,11.1,0.8c2.5,0.2,5.6-0.5,6.8,3.9H231.4l0,0c2.6-4,4.7-8.5,8-11.9c1.5-1.6,5.2-1.5,8-1.5
		c12.8-0.3,25.6-0.3,38.4-0.5c13-0.2,25.9-0.3,38.9-0.5c14.3-0.3,28.5-0.8,42.8-1c15.1-0.2,30.1,0.1,45.2,0
		c12.3,0,24.6-0.4,36.9-0.4c12.5-0.1,24.9-0.1,37.4,0c10,0.1,20.1,0.3,30.1,0.4C519.2,794.8,520.5,795.4,521.9,797.3z M435.3,785.1
		c0.5,4-1,5.7-4.9,5.8c0.2-1.4,0.3-2.8,0.5-4.1l0,0c-5.4-2-6.6-3.5-5.9-6.9c0.7-3.3,1.3-3.9,4-3.8c-0.2,2.3-0.3,4.6-0.5,6.8
		C431.2,783.6,434.7,780.5,435.3,785.1z M455.4,788.6c-0.8,0.6-1.2,1-1.6,1.1c-4.4,0.9-15.8-5.9-16.7-10.1c-0.5-2.3,0.5-3.8,3.7-3.9
		l0,0C441.4,784.6,451,783.5,455.4,788.6z M467,777.4c1.3,2,3.6,3.7,1.6,6.1c-3.7-2.4-7.2-4.6-10.8-6.9c0.1-0.3,0.2-0.7,0.3-1l0,0
		C460.9,777.7,464.4,773.5,467,777.4z M459.8,784.7c1,0.4,1.7,1.6,2.5,2.5c-0.9,0.8-1.8,1.6-2.9,2.7l0,0c-2.3-5-6.3-6.6-10.4-8.1
		c-0.7-0.3-1.7-0.2-2.1-0.6c-1.1-1.2-2-2.7-2.9-4c1-0.6,2-1.5,3-1.6c1.8,0,4-0.6,4.7,2.4C452.4,782.2,456.3,783.2,459.8,784.7z
		 M473.3,787.5c0.9-3.1,1.7-6.1,2.7-9.4c3.4,0.1,7.1,0.3,10.9,0.5c-4.5,2-8.7,4.2-10.1,9.5C475.5,787.8,474.4,787.7,473.3,787.5z
		 M506.1,776.5c3.5,4.2,6.4,8.9,10,13.8l0,0c-10.5,0-19.9,0-29.3-0.1c-0.9,0-1.8-1.1-2.8-1.7c0.7-1.1,1.2-2.8,2.1-3.1
		c2.1-0.7,4.4-0.9,6.6-1c4.4-0.2,6-1.5,6.9-5.8C500.1,775.6,504.1,774.1,506.1,776.5z M502.8,772.4h-81.1c-0.1-0.2-0.1-0.5-0.2-0.8
		c9.1-2.7,18.1-6.9,27.4-7.9c13.5-1.4,27.2,0.5,40.7-0.7C497.7,762.3,499.3,767.4,502.8,772.4z M493.6,760H458
		c-0.1-0.2-0.2-0.4-0.3-0.6l0,0c1.8-0.7,3.5-1.5,5.3-2.2c6.3-2.4,12.5-4.8,18.9-6.9c1.4-0.5,3.8,0,4.9,1
		C489.1,753.7,490.9,756.6,493.6,760z M489.6,744.7c-15,5.2-30.1,10.5-45.1,15.8c-10.2,3.6-20.4,7.4-30.5,11.2
		c-9,3.4-18,6.5-26.8,10.3c-5.3,2.3-9.7,1.2-14.5-0.9c-8.4-3.7-17-7.2-25.5-10.6c-10.4-4.1-20.8-8.3-31.4-11.9
		c-7.3-2.5-14.8-4.1-22.2-6.2c-13.2-3.6-26.4-7.3-39.6-10.8c-2.8-0.8-5.6-1-8.4-1.7c-6.8-1.7-7.4-2.5-6.1-10.2l0,0
		c6,1.6,12,3.1,18,4.7c14.4,3.9,28.8,7.9,43.2,11.7c20.8,5.5,41.3,12.2,61.1,20.6c5,2.2,10.1,4.1,15.2,6.3c4.1,1.8,7.5-0.6,11.1-1.8
		c13.8-4.7,27.4-9.8,41.2-14.4c16.9-5.5,33.9-10.6,50.8-16c10.7-3.4,21.5-6.9,32.8-10.5c0.3,2.3,0.5,4.2,0.8,6.2
		C505.4,739.3,497.5,741.9,489.6,744.7z"/>
	<path class="st0" d="M642.8,608C642.4,608,642.6,608.1,642.8,608L642.8,608z"/>
	<path class="st0" d="M231.2,527.7L231.2,527.7c0.1,0,0.2-0.1,0.2-0.1s0,0,0-0.1L231.2,527.7z"/>
	<path class="st0" d="M642.8,608c0.1,0,0.2,0,0.3,0c0,0-0.1,0-0.1-0.1C642.9,608,642.9,608,642.8,608L642.8,608z"/>
	<path class="st0" d="M370.2,261.1c0.3-0.7,0.5-1.4,0.8-2.1c-0.4,0.4-0.9,0.8-1.3,1.2C369.8,260.5,370,260.8,370.2,261.1z"/>
	<path class="st0" d="M309.2,643.3L309.2,643.3L309.2,643.3z"/>
	<path class="st0" d="M367.7,610.1C367.6,610.1,367.6,610.1,367.7,610.1C367.6,610.1,367.6,610.1,367.7,610.1L367.7,610.1z"/>
	<path class="st0" d="M587.6,533.2c0.1-0.1,0.2-0.3,0.2-0.4c-0.4,0.1-0.7,0.2-1.1,0.2C587,533.1,587.3,533.1,587.6,533.2
		L587.6,533.2z"/>
	<path class="st0" d="M285.2,389.7L285.2,389.7L285.2,389.7L285.2,389.7z"/>
	<path class="st0" d="M335.9,562.8H335c0.1,0.1,0.2,0.2,0.3,0.4C335.5,563,335.7,562.9,335.9,562.8z"/>
	<path class="st0" d="M422.4,456.1L422.4,456.1L422.4,456.1z"/>
</g>
<g>
	<path class="st0" d="M488.4,2c0.5,0,0.9,0,1.4,0.1c8.2,0.6,16,1.7,21.7,8.2c1.4,1.6,2.6,3.6,3.9,5.6c0.6,1,1.3,2.1,2,3.1l1.3,2
		l1.7-1.7c3-2.9,6.5-4.4,10.3-4.4c1.3,0,2.7,0.2,4.1,0.5c4.2,1,7.3,3.4,8.5,12.2l0.3,2.3l2.2-0.7c2.9-0.9,5.7-1.3,8.3-1.3
		c5.4,0,10.1,1.8,14.3,5.6c6.2,5.5,8.1,12.9,10,22.1l0.6,2.8l2.4-1.5c6.4-4,11.9-7.1,18.2-7.1c0.9,0,1.9,0.1,2.9,0.2
		c7.2,1,12.8,5.1,17.7,12.6l1.7,2.6l1.7-2.5c4.6-6.9,9.9-13.2,18.2-13.2c0.5,0,1.1,0,1.7,0.1c7.7,0.7,16.2,2.6,21.5,11.2l2.1,3.4
		l1.5-3.8c3.2-8.2,7.3-12.6,13.4-14c1.6-0.4,3-0.6,4.4-0.6c4.7,0,8.2,2.6,11.5,8.6l2.1,3.8l1.5-4.1c0.3-0.8,0.5-1.6,0.8-2.4
		c0.4-1.4,0.8-2.7,1.4-3.7c0.8-1.4,1.7-2.8,2.5-4.1c2.3-4,4.7-8,7.8-11c3.3-3.1,7-4.6,11.2-4.6c3.2,0,6.7,0.9,10.1,2.8
		c3.8,2,7.4,3,11.8,3.2c11.2,0.5,17.7,6.8,17.7,17.3c0,0.8,0.1,1.5,0.2,2.3c0,0.3,0.1,0.6,0.1,0.8l0.2,1.5l1.5,0.3l0.5,0.1l0.6,0.1
		l2,0.4l0.4-2c0.1-0.4,0.2-0.7,0.2-1.1c0.2-0.9,0.4-1.8,0.5-2.9c0.4-9.4,5.9-20.5,17-22.9c7.1-1.5,12.2-5.5,17.1-9.4
		c2.8-2.2,6.4-3.5,9.8-3.5c2.7,0,5.3,0.8,7.4,2.4c1,0.7,1.5,2.1,1.3,3.6c-0.2,1.6-1.2,3.6-3.4,4.4c-5.6,2.1-6.2,5.5-5.2,10.2
		c1,4.9-0.7,10-5.2,15.5c-6.6,8.1-8.2,8.7-18.8,11.5l-3.3,0.8l2.3,2.5c4.5,4.8,6,10.7,4.8,19.2c-1.5,10.8-11.4,22.4-23.7,22.4h-0.2
		c-3.6,0-7.3-1.3-10.6-2.5c-0.9-0.3-1.8-0.5-2.5-0.5c-2.8,0-4,2.3-4.6,3.3c-0.8,1.5-1.7,3-2.6,4.4c-0.3,0.5-0.6,1.1-0.9,1.6
		c-3,5-7.8,7.8-15.7,9.1c-2.4,0.4-4.7,1.2-5.9,4.6c-1.7,5.1-4.2,7.5-8.4,8.1c-2.6,0.4-3.7,4.4-3.7,4.4c-1.6,6.2-3.8,12.7-9.1,17.6
		c-4.1,3.8-8.5,5.7-13.3,5.7c-0.5,0-1,0-1.5-0.1c-0.6,0-1.3-0.1-2-0.1c-0.6,0-1.2,0-1.6,0c-0.3,0-0.5,0-0.6,0H686l-0.3,1.6
		c-0.4,1.9-0.8,3.7-1.1,5.5c-0.8,3.9-1.5,7.6-2.7,11.1c-1,2.8-3.1,5.7-5.6,7.8c-7.1,5.8-14.6,8.7-22.2,8.7c-1.7,0-3.4-0.1-5.1-0.4
		c-0.6-0.1-1.2-0.2-1.7-0.2c-3.1,0-4.8,1.8-6,3.5c-6,8.3-13.9,12.6-23.5,12.6c-0.5,0-1,0-1.6,0c-6.7-0.3-11.6-4-15.7-11.9
		c-3.2-6.3-4.1-13.1-2.7-20.9c0.2-0.9,0.3-1.9,0.4-2.8c0-0.5,0.1-0.9,0.2-1.4l0.4-3.1l-3,1c-3.9,1.3-6.5,2.1-8.5,2.1
		c-3.2,0-5.3-2.2-10.8-9.5l-1.8-2.4l-1.5,2.6c-0.2,0.4-0.5,0.8-0.7,1.1c-0.5,0.8-1,1.7-1.4,2.6c-3.7,7.9-9.2,11.9-17,12
		c-3.3,0.1-4.6,1.7-5.4,4.2c-2,6.4-6.1,12.2-12,17.3c-2.6,2.3-5.5,4-8.2,4.9c-1.6,0.6-3.5,0.8-6.1,0.8c-0.7,0-1.5,0-2.5-0.1
		c-0.2,0-0.4,0-0.6,0c-0.4,0-0.8,0-1.1,0c-1.6,0-3.6,0.4-5,3.2c-0.9,1.7-2.8,2.8-5.1,2.8c-0.9,0-1.9-0.2-2.8-0.6c-1-0.4-2-1-3-1.5
		c-0.5-0.2-0.9-0.5-1.3-0.7l-1.3-0.6l-1,1c-0.7,0.6-1.3,1.3-1.9,1.9c-1.2,1.3-2.4,2.4-3.7,3.3c-4.3,3-9.3,4.6-14.1,4.6
		c-8.3,0-15.2-4.7-19-13c-3.9-8.6-5.2-16.2-4-23.9c0.1-0.9,0.1-1.7,0.1-2.4c0-0.3,0-0.6,0-0.8v-1.3l-1.2-0.5
		c-8.6-3.7-13-8.9-14-16.6c-0.2-1.9-2.3-3.7-4-4.1c-0.2-0.1-0.5-0.1-0.7-0.1c-1.6,0-3.4,1.4-4.2,2.7c-2.2,3.8-5.8,6.4-10.2,7.3
		c-0.4,0.1-0.7,0.1-1.2,0.1c-1.5,0-3.4-0.5-5.3-1c-1.3-0.3-2.6-0.7-4-1l-1.4-0.3l-0.7,1.2c-2.2,3.7-4.9,5.6-8.1,5.6
		c-1.2,0-2.4-0.2-3.7-0.7l-1.2-0.4l-0.9,1c-2.1,2.2-2.9,4.6-3.3,6.7h-42.2c0.5-2.3-0.1-5.2-1.6-7.2c-5.2-7.2-8-15.2-8.3-23.9
		c-0.3-10.1,2-16.9,7.4-22.2c3.4-3.3,3.8-6.8,1.3-11.2c-3.8-6.9-4.2-15-1-24.1c3.9-11.2,12-17.5,24.1-18.8c7-0.7,7.7-1.4,8.9-8.1
		v-0.2c3.5-20.1,17.7-33.7,37.9-36.4c1-0.1,2-0.3,3.1-0.4c4.6-0.6,9.3-1.3,13.9-1.3c4.1,0,7.7,0.5,11.1,1.6c0.3,0.1,0.6,0.2,1,0.2
		c1.2,0,2.7-0.6,3.5-1.7c2.8-4,6.7-6,12.1-6c2.5,0,5.5-1,6.1-5.4C470,9,479.1,2,488.4,2 M488.4,0c-10,0-20.2,7.4-21.5,16.7
		c-0.3,2.3-1.4,3.7-4.2,3.7c-5.6,0-10.4,2.1-13.7,6.9c-0.3,0.4-1.2,0.8-1.8,0.8c-0.1,0-0.3,0-0.4-0.1c-3.9-1.3-7.8-1.7-11.7-1.7
		c-5.7,0-11.5,1-17.2,1.7c-21.8,2.9-36.1,17.7-39.6,38c-1,6-1,6-7.1,6.7c-12.8,1.3-21.6,8-25.8,20.1c-3,8.6-3.4,17.5,1.2,25.7
		c2.1,3.8,1.6,6.2-1,8.8c-6.8,6.6-8.3,14.9-8,23.7c0.3,9.2,3.2,17.5,8.7,25c1.1,1.4,1.6,3.9,1.2,5.6c-0.2,0.8-0.4,1.6-0.6,2.3h46.6
		c0.2-2.6,0.9-5.1,3-7.4c1.6,0.6,3.1,0.8,4.4,0.8c4.5,0,7.7-2.9,9.9-6.6c3.5,0.7,6.7,2,9.6,2c0.5,0,1,0,1.6-0.1
		c4.7-1,8.9-3.8,11.5-8.3c0.4-0.8,1.7-1.7,2.5-1.7c0.1,0,0.1,0,0.2,0c1,0.3,2.4,1.5,2.6,2.4c1.2,9.3,7,14.7,15.2,18.2
		c0,1,0.1,2,0,2.9c-1.4,8.8,0.4,17,4.1,25c4.5,9.8,12.6,14.1,20.8,14.1c5.3,0,10.7-1.8,15.3-5c2.1-1.5,3.8-3.5,5.8-5.4
		c1.3,0.7,2.8,1.5,4.4,2.2c1.1,0.5,2.4,0.7,3.6,0.7c2.8,0,5.6-1.4,6.9-3.9c0.9-1.8,1.9-2.1,3.2-2.1c0.5,0,1,0,1.6,0.1
		c0.9,0,1.7,0.1,2.6,0.1c2.3,0,4.7-0.2,6.8-0.9c3.2-1.1,6.3-3.1,8.8-5.3c5.7-4.9,10.3-10.9,12.6-18.2c0.6-2,1.3-2.8,3.5-2.8
		c9.1-0.2,15-5.1,18.7-13.2c0.5-1.2,1.3-2.3,2-3.5c5.6,7.5,8.1,10.4,12.4,10.4c2.3,0,5.1-0.8,9.1-2.2c-0.2,1.5-0.3,2.8-0.5,4.1
		c-1.4,7.7-0.7,15.2,2.9,22.2c3.7,7.2,8.8,12.6,17.4,13c0.6,0,1.1,0,1.7,0c10.5,0,18.9-4.7,25.1-13.4c1.3-1.8,2.5-2.7,4.4-2.7
		c0.4,0,0.9,0,1.4,0.1c1.8,0.3,3.6,0.4,5.4,0.4c8.7,0,16.5-3.5,23.5-9.1c2.7-2.2,5.1-5.4,6.3-8.6c1.9-5.1,2.6-10.7,4-16.8
		c0.4,0,1.3,0,2.3,0c0.6,0,1.2,0,1.9,0.1c0.5,0,1.1,0.1,1.6,0.1c5.7,0,10.4-2.3,14.6-6.3c5.4-5.1,7.9-11.6,9.7-18.6
		c0.3-1.1,1.2-2.8,2-3c5.6-0.8,8.4-4.6,10-9.5c0.7-2.2,2-2.9,4.3-3.3c6.9-1.2,13.2-3.6,17.1-10.1c1.2-2,2.4-4,3.6-6.1
		c0.8-1.4,1.5-2.3,2.9-2.3c0.5,0,1.1,0.1,1.8,0.4c3.6,1.3,7.5,2.6,11.2,2.6c0.1,0,0.2,0,0.2,0c13.5,0,24-12.3,25.7-24.1
		c1.1-7.6,0.3-14.8-5.3-20.8c10.9-2.8,12.9-3.7,19.8-12.1c3.9-4.8,7-10.7,5.6-17.2c-0.9-4.2-0.4-6.3,3.9-7.9
		c5.1-1.9,6.3-8.8,2.6-11.5c-2.6-1.9-5.6-2.7-8.6-2.7c-4,0-7.9,1.5-11,3.9c-4.9,3.9-9.8,7.6-16.3,9c-11.3,2.4-18.1,13.4-18.6,24.7
		c-0.1,1.2-0.5,2.4-0.7,3.6c-0.4-0.1-0.7-0.1-1.1-0.2c-0.1-1-0.3-1.9-0.3-2.9c0-12.1-7.9-18.8-19.6-19.3c-4.1-0.2-7.4-1.1-10.9-2.9
		c-3.7-1.9-7.4-3-11.1-3c-4.5,0-8.8,1.6-12.6,5.2c-4.5,4.2-7.3,10.2-10.6,15.5c-1.1,1.8-1.5,4-2.4,6.4c-3.6-6.6-7.7-9.6-13.3-9.6
		c-1.5,0-3.1,0.2-4.8,0.6c-7.8,1.9-11.9,7.8-14.8,15.2c-5.5-9-14.2-11.3-23-12.1c-0.6-0.1-1.2-0.1-1.9-0.1c-9,0-14.8,6.5-19.9,14.1
		c-4.7-7.3-10.5-12.3-19.1-13.5c-1.1-0.2-2.1-0.2-3.1-0.2c-7.1,0-13.1,3.5-19.3,7.4c-1.8-8.7-3.8-17.1-10.6-23.2
		c-4.7-4.2-10-6.1-15.6-6.1c-2.9,0-5.8,0.5-8.8,1.4c-1.2-8.8-4.3-12.6-10-13.9c-1.6-0.4-3.1-0.5-4.5-0.5c-4.5,0-8.5,1.8-11.7,5
		c-2.2-3.2-3.8-6.4-6-8.9C507,1.8,498.7,0.5,490-0.2C489.4,0.1,488.9,0,488.4,0L488.4,0z"/>
</g>
</svg>
