<?xml version="1.0" encoding="UTF-8"?>
<svg id="_Слой_2" data-name="Слой 2" xmlns="http://www.w3.org/2000/svg" viewBox="0 0 15.17 16.34">
  <defs>
    <style>
      .cls-1 {
        fill: #fff;
        stroke: #545454;
        stroke-miterlimit: 10;
      }
    </style>
  </defs>
  <g id="_Слой_1-2" data-name="Слой 1">
    <path class="cls-1" d="M8.16,15.84h-.51s-.05-.03-.07-.03c-.57-.09-1.03-.37-1.37-.82-.53-.7-.65-1.5-.58-2.34.02-.26.07-.52.11-.82-.06.07-.1.12-.15.16-.32.27-.62.58-.96.82-.61.43-1.31.64-2.06.5-1.35-.24-2.11-1.64-1.58-2.92.29-.71.82-1.2,1.48-1.55.32-.17.66-.3,1-.45-.08-.02-.17-.04-.26-.06-.81-.2-1.55-.51-2.11-1.15-.46-.52-.69-1.13-.58-1.83.17-1.07,1.04-1.8,2.13-1.81.66,0,1.26.2,1.81.55.3.19.58.42.87.63,0,0,0,0,0,0-.02-.08-.05-.16-.07-.24-.24-.81-.33-1.63-.05-2.45.32-.92,1.12-1.54,2.05-1.52.93.01,1.59.49,1.99,1.32.37.76.37,1.56.23,2.37-.02.09-.03.19-.05.29.27-.25.5-.49.77-.71.66-.53,1.4-.85,2.28-.77,1.19.11,2.08,1.33,1.83,2.5-.15.7-.54,1.23-1.1,1.65-.46.35-.98.58-1.56.77.2.05.37.09.53.14.78.22,1.49.58,1.99,1.25.53.71.65,1.49.25,2.3-.4.8-1.08,1.17-1.97,1.18-.72,0-1.35-.26-1.93-.65-.24-.17-.47-.36-.71-.54.02.06.03.11.05.16.23.73.35,1.46.17,2.22-.2.87-.69,1.51-1.58,1.78-.1.03-.2.05-.3.08Z"/>
  </g>
</svg>