<?xml version="1.0" encoding="UTF-8"?>
<svg id="_Слой_2" data-name="Слой 2" xmlns="http://www.w3.org/2000/svg" viewBox="0 0 15.02 13.88">
  <defs>
    <style>
      .cls-1 {
        fill: #545454;
      }

      .cls-1, .cls-2 {
        stroke-width: 0px;
      }

      .cls-2 {
        fill: #fff;
      }
    </style>
  </defs>
  <g id="_Слой_1-2" data-name="Слой 1">
    <g>
      <path class="cls-2" d="M7.51,13.24c-1.41-1.33-2.86-2.7-4.14-4.17-1.09-1.25-1.8-2.29-2.29-3.35-.38-.81-.56-1.52-.57-2.22-.02-1.22.64-2.24,1.78-2.73.44-.19.87-.27,1.41-.27,0,0,.1,0,.1,0,.54,0,1.29.13,1.92.76.33.32.62.72.94,1.29,0,0,.12.21.16.27.16.26.41.41.69.41s.54-.16.7-.44c.21-.37.42-.73.66-1.06.51-.68,1.06-1.05,1.75-1.18.25-.05.5-.07.75-.07,1.22,0,2.28.6,2.83,1.59.3.54.39,1.17.28,1.91-.16,1.08-.62,2.12-1.49,3.38-.91,1.31-1.99,2.46-3.02,3.5-.8.81-1.65,1.61-2.45,2.36Z"/>
      <path class="cls-1" d="M11.37,1c1.05,0,1.93.49,2.39,1.33.25.45.32.95.22,1.59-.15,1-.59,1.97-1.41,3.17-.88,1.28-1.95,2.4-2.96,3.43-.69.69-1.38,1.36-2.1,2.03-1.29-1.22-2.6-2.48-3.77-3.81-1.06-1.22-1.74-2.21-2.22-3.23-.35-.75-.51-1.39-.53-2.02-.02-1.01.53-1.86,1.48-2.26.37-.16.75-.23,1.22-.23h.08s0,0,0,0c.01,0,.05,0,.05,0,.61,0,1.12.21,1.54.62.29.29.56.65.86,1.18l.04.08c.04.07.08.15.12.22.25.4.67.64,1.11.64s.89-.26,1.13-.69c.2-.36.4-.7.63-1,.43-.57.88-.88,1.44-.98.22-.04.44-.06.66-.06M11.37,0c-.27,0-.55.03-.84.08-.88.16-1.53.67-2.06,1.37-.26.35-.48.73-.7,1.11-.07.12-.17.18-.26.18s-.19-.06-.26-.17c-.05-.08-.1-.17-.15-.26-.29-.5-.61-.99-1.03-1.4C5.42.26,4.62,0,3.84,0c-.01,0-.03,0-.04,0-.03,0-.07,0-.1,0C3.07,0,2.57.11,2.09.31.77.88-.03,2.09,0,3.51c.02.85.26,1.65.62,2.42.6,1.29,1.44,2.41,2.37,3.47,1.37,1.57,2.89,3,4.41,4.43.04.04.08.06.11.06.04,0,.07-.02.11-.07.91-.85,1.81-1.71,2.69-2.59,1.11-1.12,2.18-2.27,3.08-3.57.75-1.09,1.37-2.25,1.58-3.59.12-.78.05-1.52-.33-2.22-.62-1.13-1.82-1.85-3.27-1.85h0Z"/>
    </g>
  </g>
</svg>