<?xml version="1.0" encoding="UTF-8"?>
<svg id="_Слой_2" data-name="Слой 2" xmlns="http://www.w3.org/2000/svg" viewBox="0 0 13.56 13.56">
  <defs>
    <style>
      .cls-1 {
        fill: #fff;
        stroke: #545454;
        stroke-miterlimit: 10;
      }
    </style>
  </defs>
  <g id="_Слой_1-2" data-name="Слой 1">
    <path class="cls-1" d="M4.59.5c-.23.55-.41,1.11-.49,1.7-.15,1.15,0,2.26.45,3.33.79,1.84,2.11,3.15,4.03,3.78,1.5.49,3,.41,4.47-.17v.07c-.03.05-.07.1-.1.16-.48.98-1.14,1.83-2.03,2.47-1.43,1.03-3.02,1.39-4.76,1.16-1.32-.17-2.5-.68-3.48-1.57C.94,9.84.25,7.85.58,5.54c.26-1.83,1.21-3.28,2.73-4.34.39-.27.83-.47,1.25-.7.01,0,.02,0,.03,0Z"/>
  </g>
</svg>